<svg width="28" height="28" viewBox="0 0 28 28" fill="none" xmlns="http://www.w3.org/2000/svg">
<path d="M22.7275 6.59668L23.3867 5.91113C23.7207 5.55957 23.7383 5.08496 23.4131 4.75098L23.1846 4.51367C22.8857 4.21484 22.3936 4.26758 22.0684 4.58398L21.3916 5.25195L22.7275 6.59668ZM12.3037 15.9834L14.0967 15.2275L22.0859 7.22949L20.75 5.90234L12.7607 13.9004L11.9697 15.6318C11.8818 15.834 12.1016 16.0625 12.3037 15.9834ZM8.98145 21.8457H19.2295C20.9082 21.8457 21.8926 20.8701 21.8926 18.998V9.70801L20.1699 11.4307V18.8486C20.1699 19.7012 19.7129 20.1318 19.124 20.1318H9.08691C8.26953 20.1318 7.82129 19.7012 7.82129 18.8486V9.06641C7.82129 8.21387 8.26953 7.7832 9.08691 7.7832H16.6016L18.3242 6.06055H8.98145C7.0918 6.06055 6.09863 7.03613 6.09863 8.91699V18.998C6.09863 20.8789 7.0918 21.8457 8.98145 21.8457Z" fill="#A7A7A7"/>
</svg>
