<svg width="28" height="28" viewBox="0 0 28 28" fill="none" xmlns="http://www.w3.org/2000/svg">
<path d="M22.7931 20.5928C22.9259 20.7319 23 20.9168 23 21.1092C23 21.5223 22.6651 21.8571 22.2521 21.8571H5.74795C5.33487 21.8571 5 21.5223 5 21.1092C5 20.9168 5.0741 20.7319 5.20692 20.5928L7 18.7143V12.4286C7 9.18095 9.03 6.32095 12 5.39905V5.09524C12 4.53955 12.2107 4.00661 12.5858 3.61368C12.9609 3.22075 13.4696 3 14 3C14.5304 3 15.0391 3.22075 15.4142 3.61368C15.7893 4.00661 16 4.53955 16 5.09524V5.39905C18.97 6.32095 21 9.18095 21 12.4286V18.7143L22.7931 20.5928ZM16 22.9048C16 23.4605 15.7893 23.9934 15.4142 24.3863C15.0391 24.7793 14.5304 25 14 25C13.4696 25 12.9609 24.7793 12.5858 24.3863C12.2107 23.9934 12 23.4605 12 22.9048" fill="#A7A7A7"/>
</svg>
