<svg width="28" height="28" viewBox="0 0 28 28" fill="none" xmlns="http://www.w3.org/2000/svg">
<path d="M5.82617 13.9492C5.82617 14.5547 6.32422 15.043 6.91992 15.043H12.9062V21.0293C12.9062 21.625 13.4043 22.123 14 22.123C14.5957 22.123 15.0938 21.625 15.0938 21.0293V15.043H21.0801C21.6758 15.043 22.1738 14.5547 22.1738 13.9492C22.1738 13.3535 21.6758 12.8555 21.0801 12.8555H15.0938V6.86914C15.0938 6.27344 14.5957 5.77539 14 5.77539C13.4043 5.77539 12.9062 6.27344 12.9062 6.86914V12.8555H6.91992C6.32422 12.8555 5.82617 13.3535 5.82617 13.9492Z" fill="#A7A7A7"/>
</svg>
