<svg width="71" height="30" viewBox="0 0 71 30" fill="none" xmlns="http://www.w3.org/2000/svg">
<path d="M42.8755 17.2988C40.8583 17.62 40.0066 17.3482 38.834 16.0175C39.8384 15.5312 40.8268 15.0882 41.7807 14.5794C42.502 14.1946 43.2012 13.7571 43.87 13.2848C44.517 12.8279 45.5205 12.7927 46.0181 13.2888C46.6109 13.8797 46.6903 14.966 45.9326 15.545C43.9502 17.0599 44.0912 19.1158 44.2797 21.2214C44.3418 21.9149 45.2469 22.5564 46.2359 22.8063C47.0596 23.0145 47.9117 23.2543 48.6388 23.6772C50.3912 24.6963 52.2767 25.1514 54.2554 25.3531C55.355 25.4652 56.4476 25.6526 57.5485 25.7402C57.8111 25.761 58.1933 25.5855 58.3341 25.3737C58.4328 25.2253 58.2831 24.8085 58.1263 24.6044C57.627 23.9551 57.0651 23.3553 56.5454 22.7214C56.4493 22.6041 56.3491 22.3566 56.4042 22.2749C56.5066 22.1231 56.7181 21.967 56.8912 21.9585C57.3663 21.9355 57.846 21.9757 58.3221 22.0138C59.0465 22.0718 59.4565 21.819 59.4767 21.0148C59.5075 19.7849 59.5887 18.5563 59.651 17.2778C58.9908 17.4472 58.2977 17.5216 57.7114 17.8145C57.3629 17.9885 57.0736 18.4712 56.9456 18.8758C56.4258 20.5191 55.9786 22.1858 55.3605 23.8275C54.1991 22.378 54.8081 20.5447 54.1452 19.0029C53.4882 19.2407 52.8628 19.4208 52.2873 19.7042C52.1189 19.7872 52.0088 20.167 52.016 20.4062C52.0405 21.2167 52.2236 22.0324 52.1627 22.832C52.1187 23.4101 51.8795 24.3725 51.5589 24.4499C50.7912 24.635 50.6296 23.7521 50.4874 23.1754C50.3106 22.4585 50.2117 21.6969 50.234 20.9594C50.304 18.6452 50.4299 16.3322 50.57 14.0209C50.6229 13.1494 50.7238 12.2731 50.9052 11.4213C50.9756 11.0911 51.3289 10.8225 51.5533 10.5258C51.7282 10.8322 52.0108 11.1232 52.0565 11.4482C52.1649 12.2196 52.1611 13.0071 52.2027 13.7868C53.7538 13.706 54.2575 13.3999 54.4667 12.4764C54.6447 11.6904 54.447 11.072 53.8 10.5618C52.8704 9.82877 52.9271 9.55757 54.0236 9.0403C54.311 8.9047 54.5804 8.72988 55.045 8.4674C54.5671 8.28035 54.2857 8.10126 53.9875 8.06573C52.8475 7.92957 52.2485 7.07543 51.6245 6.2773C51.242 5.78798 51.6061 5.51603 52.0524 5.5184C53.062 5.5237 54.0774 5.56047 55.078 5.68592C55.6263 5.75462 55.9865 5.69777 56.251 5.16969C56.6233 4.4269 57.0447 3.70921 57.3304 2.78088C56.3661 3.10827 55.3826 3.38856 54.4431 3.77753C53.6455 4.10785 52.9347 4.71638 52.1174 4.91205C51.54 5.0503 50.5389 4.9165 50.2779 4.52715C49.8374 3.86973 49.7613 2.91762 49.715 2.07912C49.7071 1.93443 50.5945 1.64144 51.0876 1.58326C53.3571 1.31567 55.6351 1.12179 57.9055 0.861214C58.2411 0.822649 58.5813 0.610394 58.8701 0.407047C59.7912 -0.24175 60.5566 -0.123399 61.2159 0.822838C61.3876 1.0692 61.5395 1.33083 61.6853 1.59406C62.0997 2.34121 61.9049 3.05662 61.1081 3.35321C59.6083 3.91142 58.7929 5.22873 57.8331 6.35652C57.6611 6.55854 58.0346 7.31498 58.2747 7.74839C58.3526 7.88901 58.8546 7.92255 59.0835 7.82183C60.0065 7.41542 60.9316 7.49407 61.595 8.19829C62.4655 9.12217 63.0262 10.2154 63.0479 11.5185C63.0877 13.9019 63.1371 16.2863 63.1052 18.6693C63.0891 19.8875 62.909 21.1037 62.7971 22.3204C62.7016 23.3584 62.0485 24.0457 61.3529 24.728C61.0379 25.0371 60.8327 25.4606 60.4517 26.0158C61.8661 26.0807 63.011 26.1517 64.1569 26.1817C66.0687 26.2318 67.9819 26.237 69.893 26.3064C70.2657 26.32 70.6311 26.5401 70.9999 26.6649C70.9934 26.7432 70.987 26.8214 70.9805 26.8997C70.3265 27.1886 69.6725 27.4776 69.0867 27.7364C69.1597 27.7483 69.35 27.7795 69.6063 27.8214C69.2694 28.0671 68.9848 28.2748 68.6971 28.4847C68.9943 28.7986 69.255 29.0741 69.4518 29.2819C68.5553 29.5532 67.8644 29.9251 67.1641 29.9444C64.9363 30.0058 62.6967 30.051 60.4777 29.8844C58.2578 29.7177 56.0432 29.3644 53.8522 28.9529C51.7634 28.5606 49.8284 27.698 47.9585 26.6615C47.0015 26.1309 45.9465 25.7474 44.8962 25.4319C43.9584 25.1502 43.0609 25.4514 42.294 26.07C41.7578 26.5025 41.2777 26.4133 40.9139 25.8797C40.631 25.4648 40.3573 25.0081 40.2293 24.529C40.0393 23.8181 40.0354 23.2246 41.0724 23.0361C41.7897 22.9058 42.4405 22.3565 43.0945 21.9509C43.2281 21.868 43.3185 21.5843 43.3022 21.405C43.1801 20.0574 43.0264 18.7127 42.8752 17.2991L42.8755 17.2988ZM59.0867 9.88685C57.3056 10.2625 57.1541 10.499 57.5557 11.964C58.1696 12.1204 58.7403 12.2657 59.3004 12.4083C59.237 11.6598 59.1648 10.8079 59.0867 9.88685ZM52.2854 17.3418C54.0172 17.3682 54.6409 16.6373 54.0291 15.2987C52.0511 15.8974 52.0297 15.9225 52.2854 17.3418ZM57.5333 15.6969C59.376 15.8575 59.7632 15.4576 59.342 13.7862C58.7868 14.4988 57.1813 14.0298 57.5333 15.6969Z" fill="black"/>
<path d="M21.7717 18.181C22.1483 18.3018 22.5249 18.4227 22.9192 18.5492C23.0164 18.0506 23.1161 17.5407 23.2156 17.0307C23.2925 16.9927 23.3695 16.9545 23.4464 16.9164C24.3638 18.0688 25.8317 18.6287 26.2408 20.3774C26.4803 21.4011 27.3404 22.2828 27.9476 23.2109C28.6735 24.3203 28.6778 25.5647 28.5257 26.7868C28.3848 27.9182 27.7023 28.4405 26.5785 28.3144C25.3424 28.1757 24.1235 27.8816 22.8963 27.66C22.7213 27.6285 22.5275 27.5719 22.3658 27.6155C20.6028 28.0903 19.0362 27.5449 17.4467 26.812C15.4733 25.9019 13.2623 25.4948 11.5682 24.0021C10.141 22.7446 8.54432 21.605 7.40683 20.114C6.38824 18.779 6.41846 16.9987 6.9822 15.333C7.12374 14.9148 7.25649 14.4822 7.30701 14.046C7.46642 12.6701 8.69485 11.0852 9.81522 10.8678C10.6877 10.6986 10.7397 10.9541 10.9523 11.7859C11.3249 13.2432 10.6553 14.2576 9.97613 15.3754C9.26785 16.5411 10.2546 18.4831 11.6602 19.0397C12.3878 19.3278 13.0353 19.8186 13.7297 20.1976C14.3017 20.5098 14.8723 20.8355 15.4736 21.0799C17.0101 21.7042 18.5456 22.3416 20.1184 22.8593C20.7777 23.0763 21.5299 23.036 22.2403 23.041C22.4179 23.0422 22.7637 22.7477 22.75 22.6197C22.6309 21.5013 22.4796 20.3836 22.2616 19.281C22.2066 19.0027 21.8784 18.7796 21.6757 18.531C21.7077 18.4144 21.7397 18.2977 21.7717 18.1811V18.181Z" fill="black"/>
<path d="M24.3223 11.3846C24.5614 11.3536 24.7223 11.3327 24.8597 11.3149C24.1876 10.4102 23.5331 9.5292 22.9375 8.72747C23.1377 8.38208 23.2973 8.10672 23.4569 7.83135C23.943 7.2504 24.5901 7.44882 25.2534 7.68259C26.3766 8.07848 27.4891 8.53539 28.643 8.80602C30.3255 9.20068 31.3306 10.4117 32.253 11.6934C32.8214 12.4833 32.4383 13.843 31.5725 14.3967C30.677 14.9695 29.7399 15.4898 28.7742 15.9276C28.4848 16.0589 27.9899 15.9279 27.6749 15.7565C27.1076 15.4479 26.5133 15.0995 26.0963 14.6204C25.414 13.8363 24.676 13.0414 24.5929 11.8946C24.5818 11.7412 24.4395 11.5975 24.3223 11.3848V11.3846Z" fill="black"/>
<path d="M19.872 9.68251C19.8758 9.75263 19.8891 10.0468 19.9084 10.3405C19.9872 11.5395 20.555 12.7789 19.5758 13.8884C19.4063 14.0804 19.3539 14.3783 19.2481 14.6277C18.7476 15.8077 17.9588 16.2734 16.7173 16.1209C16.6291 16.1101 16.5313 16.1163 16.4549 16.079C15.4599 15.594 14.7603 13.7007 15.1624 12.5997C15.1933 12.5152 15.2386 12.422 15.2286 12.3387C15.0385 10.7424 16.2475 9.79745 16.9316 8.61062C17.0161 8.46394 17.1891 8.36937 17.3212 8.25064C17.8029 8.82809 18.5702 7.50292 19.0207 8.52752C19.1962 8.92664 19.5443 9.24833 19.8721 9.68241L19.872 9.68251Z" fill="black"/>
<path d="M4.08475 15.0139C4.02947 15.4304 3.97436 15.8451 3.91926 16.2599C3.99242 16.2829 4.06558 16.306 4.13883 16.329C4.26531 16.0574 4.39179 15.7856 4.64326 15.2453C4.69368 15.8375 4.76263 16.1817 4.74495 16.5212C4.67796 17.8114 4.58722 19.1005 4.49741 20.3893C4.38337 22.025 3.68922 23.1655 2.70927 23.3437C2.00539 23.4718 0.520351 22.1579 0.219303 20.9104C0.00647311 20.0288 -0.0909139 19.0298 0.10938 18.1658C0.248678 17.5651 0.926739 17.0377 1.46092 16.5977C2.2416 15.9545 2.82246 14.936 4.08485 15.014L4.08475 15.0139Z" fill="black"/>
<path d="M40.3907 7.80878H41.3178C40.8619 7.55322 40.6114 7.4127 40.0615 7.10445C40.9251 6.71027 41.579 6.40288 42.2401 6.11188C43.7975 5.42632 45.1367 5.95904 46.0639 7.18272C46.5094 7.77078 46.6898 8.86171 46.4822 9.57362C46.2736 10.2888 45.2707 10.2898 44.5854 9.99907C43.1456 9.38837 41.7473 8.67779 40.3321 8.00814C40.3516 7.94172 40.3712 7.8752 40.3906 7.80878H40.3907Z" fill="black"/>
</svg>
