<svg width="27" height="27" viewBox="0 0 27 27" fill="none" xmlns="http://www.w3.org/2000/svg">
<path d="M11.2441 24.5H15.7441M8.99414 16.625H17.9941M5.61914 9.875C5.61914 7.78642 6.44883 5.78338 7.92567 4.30653C9.40252 2.82969 11.4056 2 13.4941 2C15.5827 2 17.5858 2.82969 19.0626 4.30653C20.5395 5.78338 21.3691 7.78642 21.3691 9.875C21.3699 11.143 21.0632 12.3922 20.4754 13.5157C19.8876 14.6392 19.0362 15.6034 17.9941 16.3258L17.3844 19.2125C17.3037 19.7446 17.0349 20.2301 16.6268 20.581C16.2188 20.9319 15.6984 21.1249 15.1603 21.125H13.4941H11.828C11.2898 21.1249 10.7695 20.9319 10.3615 20.581C9.95339 20.2301 9.68462 19.7446 9.60389 19.2125L9.45145 18.4939L9.29902 17.7753L8.99414 16.3381C7.95172 15.6132 7.10028 14.6467 6.51256 13.5212C5.92484 12.3957 5.6183 11.1447 5.61914 9.875Z" stroke="#242424" stroke-width="2.58333" stroke-linecap="round" stroke-linejoin="round"/>
<circle cx="13.5" cy="9.5" r="7.5" fill="#242424"/>
</svg>
