<svg width="27" height="27" viewBox="0 0 27 27" fill="none" xmlns="http://www.w3.org/2000/svg">
<path d="M22.3594 3.375H4.64063C3.32213 3.375 2.25 4.38412 2.25 5.625V21.375C2.25 22.6159 3.32213 23.625 4.64063 23.625H22.3594C23.6779 23.625 24.75 22.6159 24.75 21.375V5.625C24.75 4.38412 23.6779 3.375 22.3594 3.375ZM22.3594 21.375H4.64063C4.5765 21.375 4.53263 21.357 4.5135 21.357C4.50563 21.357 4.50113 21.3593 4.5 21.366L4.4865 5.67675C4.49438 5.6655 4.545 5.625 4.64063 5.625H22.3594C22.4483 5.62613 22.4966 5.6565 22.5 5.634L22.5135 21.3232C22.5056 21.3345 22.455 21.375 22.3594 21.375Z" fill="#BDBDBD"/>
<path d="M6.75 8.875C6.75 8.32272 7.19772 7.875 7.75 7.875H12.5C13.0523 7.875 13.5 8.32272 13.5 8.875V13.625C13.5 14.1773 13.0523 14.625 12.5 14.625H7.75C7.19772 14.625 6.75 14.1773 6.75 13.625V8.875ZM14.625 16.875H7.75C7.19772 16.875 6.75 17.3227 6.75 17.875V18.125C6.75 18.6773 7.19772 19.125 7.75 19.125H19.25C19.8023 19.125 20.25 18.6773 20.25 18.125V17.875C20.25 17.3227 19.8023 16.875 19.25 16.875H15.75H14.625ZM15.75 13.375C15.75 12.8227 16.1977 12.375 16.75 12.375H19.25C19.8023 12.375 20.25 12.8227 20.25 13.375V13.625C20.25 14.1773 19.8023 14.625 19.25 14.625H16.75C16.1977 14.625 15.75 14.1773 15.75 13.625V13.375ZM15.75 8.875C15.75 8.32272 16.1977 7.875 16.75 7.875H19.25C19.8023 7.875 20.25 8.32272 20.25 8.875V9.125C20.25 9.67728 19.8023 10.125 19.25 10.125H16.75C16.1977 10.125 15.75 9.67728 15.75 9.125V8.875Z" fill="#BDBDBD"/>
</svg>
