<svg width="40" height="40" viewBox="0 0 40 40" fill="none" xmlns="http://www.w3.org/2000/svg">
<rect width="40" height="40" rx="8" fill="#E8C340"/>
<path fill-rule="evenodd" clip-rule="evenodd" d="M20 32C26.6274 32 32 26.6274 32 20C32 13.3726 26.6274 8 20 8C13.3726 8 8 13.3726 8 20C8 26.6274 13.3726 32 20 32ZM19.6524 23.5819C19.3782 23.5534 19.1408 23.4957 18.9402 23.4088C18.6417 23.2748 18.4111 23.0901 18.2483 22.8545C18.188 22.7672 18.1357 22.6758 18.0916 22.5803C17.9595 22.2948 17.7039 22.0577 17.3893 22.0577C16.9176 22.0577 16.5234 22.4594 16.6796 22.9045C16.765 23.1481 16.8855 23.3716 17.0409 23.5751C17.362 23.9908 17.7848 24.3095 18.3094 24.5312C18.7237 24.7012 19.1714 24.8047 19.6524 24.8415V25.5964C19.6524 25.8193 19.8331 26 20.056 26C20.2789 26 20.4595 25.8193 20.4595 25.5964V24.8421C20.9384 24.8063 21.3838 24.705 21.7958 24.5381C22.3203 24.321 22.7386 24.0046 23.0506 23.5889C23.3672 23.1732 23.5254 22.6628 23.5254 22.0577V22.0439C23.5254 21.3095 23.288 20.739 22.8132 20.3326C22.3429 19.9215 21.6601 19.6097 20.7648 19.3972L20.4595 19.324V16.4312C20.6585 16.4597 20.8439 16.5107 21.0157 16.5843C21.2961 16.7044 21.5222 16.8776 21.694 17.1039C21.7565 17.184 21.8098 17.2722 21.8541 17.3673C21.9986 17.6776 22.2681 17.9479 22.6104 17.9462C23.0474 17.9441 23.4099 17.5726 23.2783 17.1558C23.1997 16.9066 23.0859 16.6763 22.9353 16.4665C22.6414 16.0508 22.2457 15.7275 21.7483 15.4965C21.3589 15.3157 20.9293 15.2057 20.4595 15.1665V14.4036C20.4595 14.1807 20.2789 14 20.056 14C19.8331 14 19.6524 14.1807 19.6524 14.4036V15.1659C19.1768 15.2037 18.7427 15.3093 18.35 15.4827C17.8526 15.7044 17.4592 16.0185 17.1698 16.4249C16.8804 16.8314 16.7357 17.3141 16.7357 17.873V17.8868C16.7357 18.5889 16.9618 19.1478 17.414 19.5635C17.8707 19.9746 18.5287 20.2841 19.3878 20.4919L19.6524 20.5554V23.5819ZM19.6524 19.1292V16.4286C19.4171 16.4583 19.2091 16.5148 19.0283 16.5982C18.748 16.7229 18.5355 16.8891 18.3907 17.097C18.2506 17.3002 18.1805 17.5219 18.1805 17.7621V17.776C18.1805 18.0947 18.298 18.3695 18.5332 18.6005C18.7584 18.8175 19.1315 18.9938 19.6524 19.1292ZM20.4595 20.7494V23.5882C20.7602 23.5638 21.0157 23.5086 21.226 23.4226C21.5199 23.2979 21.7347 23.1293 21.8704 22.9169C22.0106 22.7044 22.0807 22.4642 22.0807 22.1963V22.1824C22.0807 21.8268 21.9631 21.5358 21.728 21.3095C21.5002 21.0903 21.0774 20.9036 20.4595 20.7494Z" fill="white"/>
</svg>
