<svg width="27" height="27" viewBox="0 0 27 27" fill="none" xmlns="http://www.w3.org/2000/svg">
<path d="M22.3594 3.375H4.64063C3.32212 3.375 2.25 4.38412 2.25 5.625V21.375C2.25 22.6159 3.32212 23.625 4.64063 23.625H22.3594C23.6779 23.625 24.75 22.6159 24.75 21.375V5.625C24.75 4.38412 23.6779 3.375 22.3594 3.375Z" fill="#242424"/>
<path d="M6.75 8.875C6.75 8.32272 7.19772 7.875 7.75 7.875H12.5C13.0523 7.875 13.5 8.32272 13.5 8.875V13.625C13.5 14.1773 13.0523 14.625 12.5 14.625H7.75C7.19772 14.625 6.75 14.1773 6.75 13.625V8.875ZM14.625 16.875H7.75C7.19772 16.875 6.75 17.3227 6.75 17.875V18.125C6.75 18.6773 7.19772 19.125 7.75 19.125H19.25C19.8023 19.125 20.25 18.6773 20.25 18.125V17.875C20.25 17.3227 19.8023 16.875 19.25 16.875H15.75H14.625ZM15.75 13.375C15.75 12.8227 16.1977 12.375 16.75 12.375H19.25C19.8023 12.375 20.25 12.8227 20.25 13.375V13.625C20.25 14.1773 19.8023 14.625 19.25 14.625H16.75C16.1977 14.625 15.75 14.1773 15.75 13.625V13.375ZM15.75 8.875C15.75 8.32272 16.1977 7.875 16.75 7.875H19.25C19.8023 7.875 20.25 8.32272 20.25 8.875V9.125C20.25 9.67728 19.8023 10.125 19.25 10.125H16.75C16.1977 10.125 15.75 9.67728 15.75 9.125V8.875Z" fill="#242424"/>
<path d="M6.75 8.87524C6.75 8.32296 7.19772 7.87524 7.75 7.87524H12.5C13.0523 7.87524 13.5 8.32296 13.5 8.87524V13.6252C13.5 14.1775 13.0523 14.6252 12.5 14.6252H7.75C7.19772 14.6252 6.75 14.1775 6.75 13.6252V8.87524ZM14.625 16.8752H7.75C7.19772 16.8752 6.75 17.323 6.75 17.8752V18.1252C6.75 18.6775 7.19772 19.1252 7.75 19.1252H19.25C19.8023 19.1252 20.25 18.6775 20.25 18.1252V17.8752C20.25 17.323 19.8023 16.8752 19.25 16.8752H15.75H14.625ZM15.75 13.3752C15.75 12.823 16.1977 12.3752 16.75 12.3752H19.25C19.8023 12.3752 20.25 12.823 20.25 13.3752V13.6252C20.25 14.1775 19.8023 14.6252 19.25 14.6252H16.75C16.1977 14.6252 15.75 14.1775 15.75 13.6252V13.3752ZM15.75 8.87524C15.75 8.32296 16.1977 7.87524 16.75 7.87524H19.25C19.8023 7.87524 20.25 8.32296 20.25 8.87524V9.12524C20.25 9.67753 19.8023 10.1252 19.25 10.1252H16.75C16.1977 10.1252 15.75 9.67753 15.75 9.12524V8.87524Z" fill="white"/>
</svg>
