<svg width="28" height="28" viewBox="0 0 28 28" fill="none" xmlns="http://www.w3.org/2000/svg">
<path d="M15.3447 23.3926C16.0127 23.3926 16.4873 22.8477 16.8125 22.0039L22.6133 6.84277C22.7627 6.44727 22.8506 6.10449 22.8506 5.80566C22.8506 5.18164 22.4551 4.78613 21.8311 4.78613C21.541 4.78613 21.1895 4.87402 20.7939 5.02344L5.57129 10.8506C4.81543 11.1406 4.24414 11.6152 4.24414 12.3008C4.24414 13.1357 4.86816 13.4521 5.72949 13.707L10.291 15.1045C10.9062 15.2891 11.2578 15.2803 11.6885 14.8848L21.4707 5.81445C21.5938 5.70898 21.7344 5.71777 21.8311 5.80566C21.9277 5.90234 21.9365 6.05176 21.8223 6.1748L12.7783 15.9658C12.4092 16.3701 12.374 16.748 12.5586 17.3721L13.9121 21.8369C14.1846 22.7334 14.4922 23.3926 15.3447 23.3926Z" fill="#BDBDBD"/>
</svg>
