<svg width="40" height="40" viewBox="0 0 40 40" fill="none" xmlns="http://www.w3.org/2000/svg">
<rect width="40" height="40" rx="8" fill="#408DE8"/>
<path d="M10 17.5H30V26C30 28.2091 28.2091 30 26 30H14C11.7909 30 10 28.2091 10 26V17.5Z" fill="white"/>
<path d="M10.75 15.5C10.75 13.7051 12.2051 12.25 14 12.25H26C27.7949 12.25 29.25 13.7051 29.25 15.5V18.25H10.75V15.5Z" stroke="white" stroke-width="1.5"/>
<path d="M15 11C15 10.4477 15.4477 10 16 10C16.5523 10 17 10.4477 17 11V13C17 13.5523 16.5523 14 16 14C15.4477 14 15 13.5523 15 13V11Z" fill="white"/>
<path d="M23 11C23 10.4477 23.4477 10 24 10C24.5523 10 25 10.4477 25 11V13C25 13.5523 24.5523 14 24 14C23.4477 14 23 13.5523 23 13V11Z" fill="white"/>
</svg>
