<svg width="27" height="27" viewBox="0 0 27 27" fill="none" xmlns="http://www.w3.org/2000/svg">
<path fill-rule="evenodd" clip-rule="evenodd" d="M6.71943 9.20884C6.4669 9.20879 6.22362 9.30386 6.03803 9.47511C5.85245 9.64636 5.73818 9.88124 5.71797 10.133L4.8146 21.383C4.80352 21.5211 4.82116 21.6602 4.86642 21.7912C4.91168 21.9223 4.98359 22.0426 5.07762 22.1445C5.17164 22.2464 5.28575 22.3277 5.41275 22.3833C5.53964 22.4389 5.67665 22.4677 5.81518 22.4678M6.71968 6.71777C5.84098 6.71766 4.99447 7.04848 4.3487 7.64438C3.70287 8.24033 3.30521 9.05766 3.23489 9.93361L2.33152 21.1836C2.29292 21.6646 2.35431 22.1484 2.51183 22.6045C2.66936 23.0606 2.9196 23.4791 3.24681 23.8337C3.57402 24.1883 3.97111 24.4714 4.41307 24.665C4.85503 24.8587 5.33229 24.9587 5.81481 24.9588H21.1894C21.672 24.9587 22.1496 24.8587 22.5915 24.665C23.0335 24.4714 23.4306 24.1883 23.7578 23.8337C24.085 23.4791 24.3353 23.0606 24.4928 22.6045C24.6503 22.1484 24.7117 21.6646 24.6731 21.1837L23.7697 9.93367C23.6994 9.05769 23.3018 8.24034 22.6559 7.64438C22.0101 7.04848 21.1636 6.71766 20.2849 6.71777H6.71968ZM6.71943 9.20884L6.34978 14.4961L5.81518 22.4678H21.1894L21.5919 22.3833L21.927 22.1445L22.1382 21.7912L22.2605 21.2461L20.9666 9.47511L20.2849 9.20884M20.2849 9.20884C20.5375 9.20879 20.781 9.30386 20.9666 9.47511L20.2849 9.20884ZM20.9666 9.47511C21.1522 9.64636 21.2664 9.88124 21.2866 10.133L20.9666 9.47511ZM21.2866 10.133L20.9666 9.47511L22.2605 21.2461M22.2605 21.2461C22.2716 21.3843 22.1835 21.6602 22.1382 21.7912L22.2605 21.2461ZM22.1382 21.7912C22.0929 21.9223 22.021 22.0426 21.927 22.1445L22.1382 21.7912ZM21.927 22.1445C21.833 22.2464 21.7189 22.3277 21.5919 22.3833L21.927 22.1445ZM21.5919 22.3833C21.465 22.4389 21.328 22.4677 21.1894 22.4678L21.5919 22.3833ZM21.1894 22.4678H5.81518H21.1894Z" fill="#BDBDBD"/>
<path fill-rule="evenodd" clip-rule="evenodd" d="M9.51877 3.68283C10.5963 2.60533 12.0577 2 13.5815 2C15.1053 2 16.5667 2.60533 17.6442 3.68283C18.7217 4.76033 19.327 6.22172 19.327 7.74554V13.3705C19.327 14.0584 18.7694 14.6161 18.0815 14.6161C17.3936 14.6161 16.8359 14.0584 16.8359 13.3705V7.74554C16.8359 6.8824 16.4931 6.05461 15.8827 5.44428C15.2724 4.83395 14.4446 4.49107 13.5815 4.49107C12.7183 4.49107 11.8905 4.83395 11.2802 5.44428C10.6699 6.05461 10.327 6.8824 10.327 7.74554V13.3705C10.327 14.0584 9.76936 14.6161 9.08147 14.6161C8.39358 14.6161 7.83594 14.0584 7.83594 13.3705V7.74554C7.83594 6.22172 8.44127 4.76033 9.51877 3.68283Z" fill="#BDBDBD"/>
</svg>
