<svg width="259" height="325" viewBox="0 0 259 325" fill="none" xmlns="http://www.w3.org/2000/svg">
<path d="M81.4209 111.572C82.9009 111.489 83.7335 110.687 84.4087 109.368C84.976 108.258 86.0398 107.407 86.8014 106.383C87.3533 105.643 87.7171 104.764 88.2629 104.018C88.6391 103.503 89.1262 103.019 89.6627 102.677C95.7431 98.7579 102.271 96.1309 109.55 95.357C114.592 94.8205 119.581 93.803 124.603 93.0907C128.328 92.5604 132.043 92.4987 135.38 94.1946C134.476 89.2211 135.688 84.3217 135.947 79.4099C136.277 73.1938 136.585 66.9932 135.756 60.8018C135.568 59.3927 135.327 57.885 134.664 56.664C133.727 54.9373 135.173 54.1079 135.651 52.9177C135.713 52.7635 136.191 52.7789 136.243 52.7666C138.115 57.6013 138.623 62.6272 139.228 67.6099C139.968 73.718 140.532 79.8601 140.883 86.0021C141.025 88.5181 140.409 91.0773 140.159 93.4083C144.09 94.9469 148.086 96.3745 151.953 98.0858C153.686 98.8535 155.141 100.226 156.766 101.255C158.409 102.301 160.08 103.303 161.782 104.252C164.786 105.927 167.807 107.57 170.844 109.183C175.155 111.474 179.845 111.797 184.605 111.831C186.486 111.844 187.226 110.506 188.17 109.3C188.62 108.726 188.805 107.546 189.915 108.15C190.044 108.221 189.6 109.429 189.36 110.086C188.756 111.754 188.111 113.41 187.495 115.072C187.353 115.457 187.328 115.895 187.137 116.25C184.501 121.183 182.031 126.206 177.437 129.776C175.673 131.149 174.307 133.023 172.661 134.562C171.276 135.857 169.836 137.127 168.264 138.176C163.568 141.305 158.792 144.311 154.065 147.395C153.571 147.719 153.118 148.178 152.788 148.668C147.997 155.738 141.688 161.291 134.948 166.388C134.106 167.027 132.79 167.036 131.692 167.332C131.159 167.477 130.604 167.563 130.086 167.751C128.35 168.374 126.641 169.077 124.884 169.629C124.48 169.755 123.922 169.391 123.435 169.253C123.795 168.907 124.098 168.386 124.529 168.238C139.468 163.126 147.479 152.359 149.924 137.096C150.565 133.094 150.026 129.11 148.996 125.21C148.789 124.43 148.41 123.671 147.991 122.975C146.952 121.257 144.972 120.187 144.815 117.801C144.772 117.119 143.421 116.561 142.764 115.858C142.471 115.547 142.225 115.001 142.277 114.6C142.437 113.37 141.901 112.719 140.862 112.177C137.886 110.626 134.757 109.624 131.433 109.17C130.523 109.047 129.564 108.89 128.754 108.495C125.667 106.987 122.553 106.901 119.214 107.607C115.449 108.403 111.662 108.064 107.956 106.873C107.398 106.694 106.563 106.954 106.001 107.265C101.972 109.513 97.9878 111.841 93.964 114.101C93.4522 114.387 92.8047 114.434 92.6382 114.48C91.9136 116.318 91.5251 118.097 90.5877 119.506C88.8148 122.173 88.2475 125.136 87.7449 128.176C86.5116 135.66 86.4684 143.109 88.4541 150.475C89.9803 156.139 93.5139 160.296 98.8635 162.531C104.435 164.859 110.207 166.706 115.908 168.716C116.399 168.889 117.077 168.88 117.552 168.682C118.979 168.087 120.148 168.439 121.239 169.395C121.394 169.53 121.569 169.638 121.742 169.752C123.16 170.683 125.1 171.109 124.936 173.058C126.842 172.296 128.538 171.399 130.345 170.961C132.17 170.52 134.02 171.544 134.612 172.977C134.775 173.372 134.59 173.912 134.566 174.383C134.143 174.235 133.582 174.214 133.326 173.921C131.547 171.892 128.427 172.151 126.999 174.473C126.518 175.256 125.945 175.987 125.414 176.739C124.859 175.99 124.363 175.188 123.74 174.504C122.809 173.486 121.847 172.484 120.789 171.605C119.735 170.727 118.455 170.751 117.324 171.439C115.696 172.425 113.79 173.202 113.414 175.444C113.398 175.527 113.161 175.574 112.942 175.675C112.245 174.649 112.301 173.634 113.041 172.737C113.716 171.914 114.539 171.211 115.433 170.32C112.995 169.536 110.654 168.861 108.369 168.032C105.141 166.86 101.91 165.67 98.7556 164.319C92.4347 161.612 88.4911 156.814 86.7397 150.185C86.6626 149.889 86.567 149.596 86.4622 149.31C86.4314 149.22 86.3451 149.152 86.3389 149.146C80.536 149.047 75.2265 147.176 69.9447 145.206C68.3629 144.617 66.7349 144.077 65.2734 143.26C64.4316 142.788 63.8921 141.789 63.1921 141.049C62.9208 140.759 62.594 140.519 62.2795 140.269C60.0379 138.481 57.6143 136.874 55.6163 134.846C54.2689 133.48 53.5104 131.528 52.533 129.814C52.4189 129.613 52.5761 129.255 52.6162 128.895C52.9061 128.953 53.1867 128.922 53.2761 129.036C54.79 131.013 56.7263 130.822 58.8477 130.316C61.2311 129.746 63.7163 129.558 66.072 128.898C70.6323 127.621 73.8297 124.689 75.8277 120.372C77.5482 116.654 79.3458 112.966 81.2452 109.337C81.8742 108.134 82.9009 107.126 83.8075 106.087C84.4241 105.381 85.2135 105.199 86.342 105.763C83.7365 107.098 82.46 109.251 81.4579 111.619C80.8906 112.556 80.3233 113.493 79.6696 114.569C80.3818 114.696 80.8166 114.791 81.2575 114.841C81.5474 114.875 81.8434 114.847 82.1363 114.844C82.0808 114.502 82.0438 114.153 81.9667 113.817C81.794 113.068 81.6029 112.325 81.4179 111.579L81.4209 111.572ZM73.6262 135.777C71.6652 134.173 69.5038 132.394 67.33 130.637C67.1512 130.492 66.8459 130.375 66.6393 130.421C65.073 130.776 63.519 131.173 61.6073 131.645C65.9579 133.14 69.9416 134.509 73.6262 135.777ZM185.299 113.092H179.105C179.715 113.564 179.993 113.94 180.172 113.897C181.901 113.484 182.462 113.993 181.71 115.689C181.661 115.8 181.722 115.997 181.793 116.12C182.333 117.036 181.793 117.495 181.1 117.983C180.076 118.701 179.108 119.5 178.115 120.264L178.3 120.641C179.29 120.375 180.705 120.428 181.189 119.783C182.706 117.767 183.869 115.488 185.299 113.096V113.092ZM63.4912 139.175C62.5662 136.196 59.3071 135.138 58.7953 131.892C57.935 131.984 57.0686 132.08 56.2022 132.172C56.122 132.345 56.0449 132.515 55.9648 132.687C58.4746 134.849 60.9814 137.01 63.4912 139.175V139.175ZM149.366 99.3191C145.73 97.0683 139.043 95.1288 137.214 95.875C141.176 97.9594 145.394 98.1968 149.366 99.3191ZM122.855 94.7958L122.886 95.1967H133.314C130.97 93.8647 126.293 93.7197 122.855 94.7958V94.7958ZM161.48 110.558C163.953 111.36 164.841 109.396 166.472 108.276C164.705 107.308 163.201 106.485 161.314 105.455C161.641 106.445 161.807 106.95 161.974 107.453C162.054 107.354 162.134 107.259 162.214 107.16C162.809 107.394 163.404 107.626 163.999 107.86C163.62 108.409 163.287 108.998 162.846 109.488C162.492 109.88 162.004 110.154 161.48 110.555V110.558ZM75.8462 123.56C78.1988 125.192 80.4743 126.77 82.7529 128.349C82.8393 128.222 82.9256 128.099 83.0119 127.973C80.8998 126.061 78.7878 124.152 76.6109 122.182C76.3365 122.679 76.096 123.11 75.8462 123.56ZM75.6088 129.958C75.7445 129.835 75.8771 129.712 76.0127 129.588C75.134 128.608 74.2552 127.624 73.3641 126.631C72.1832 127.489 71.1256 128.256 69.9786 129.086C70.7217 129.524 71.2119 130.171 72.0198 129.249C72.2942 128.938 73.1452 128.966 73.6755 129.089C74.3508 129.246 74.9675 129.656 75.6088 129.958V129.958ZM69.883 137.42C71.0948 138.351 72.0938 139.36 73.2932 139.97C74.505 140.587 75.9171 140.812 77.2399 141.206C77.3047 141.015 77.3694 140.824 77.4342 140.633C74.9921 139.421 72.766 137.704 69.883 137.417V137.42ZM133.548 108.144C133.591 108.036 133.634 107.928 133.678 107.817C131.926 106.916 130.2 105.954 128.399 105.156C127.97 104.965 127.298 105.325 126.737 105.43C126.752 105.637 126.768 105.843 126.783 106.047C129.037 106.744 131.291 107.444 133.545 108.141L133.548 108.144ZM139.185 80.3071C139.046 80.3041 138.904 80.301 138.765 80.2979V91.583C139.74 87.5962 139.573 83.9548 139.185 80.3071ZM152.912 100.734C152.93 100.913 152.946 101.089 152.964 101.268C151.832 102.162 150.704 103.056 149.572 103.95C149.591 104.052 149.609 104.154 149.628 104.256C151.302 103.537 152.976 102.822 154.814 102.036C154.197 101.613 153.556 101.172 152.912 100.734ZM78.6182 117.486C80.3078 118.926 81.7539 120.156 83.163 121.356C81.8742 119.484 80.5946 117.625 79.3119 115.756C79.0622 116.379 78.7662 117.125 78.6212 117.486H78.6182ZM75.9141 135.283C76.022 135.138 76.1299 134.99 76.2378 134.846C73.8914 133.732 72.4638 131.195 69.7628 130.627C69.6826 130.748 69.6055 130.865 69.5253 130.985C71.6559 132.419 73.7866 133.85 75.9172 135.283H75.9141ZM83.0644 133.39C81.7108 132.604 80.5329 131.919 79.3551 131.235L79.0591 131.642C79.944 132.595 80.8289 133.544 81.6984 134.482C82.2103 134.072 82.5248 133.822 83.0644 133.39V133.39ZM157.216 107.962C158.064 107.613 158.6 107.447 159.078 107.175C159.387 107 159.852 106.62 159.812 106.426C159.744 106.106 159.365 105.726 159.038 105.615C158.65 105.483 157.87 105.47 157.786 105.649C157.493 106.275 157.429 107.009 157.219 107.962H157.216ZM149.464 106.657C148.539 105.356 146.264 105.424 144.22 106.657H149.464ZM148.04 151.724C148.16 151.838 148.28 151.952 148.401 152.066C149.329 150.901 150.257 149.735 151.188 148.57C148.746 148.471 149.101 150.682 148.04 151.721V151.724ZM155.619 107.9C155.458 107.694 155.298 107.487 155.138 107.283C154.133 108.03 153.124 108.779 152.119 109.525C152.283 109.744 152.446 109.96 152.609 110.179C153.612 109.42 154.617 108.662 155.619 107.903V107.9ZM161.178 115.827C157.87 118.235 157.487 118.695 157.82 119.793C158.989 118.414 160.084 117.122 161.178 115.827ZM74.4125 130.964C74.3015 131.115 74.1874 131.269 74.0764 131.42C75.3899 132.28 76.7034 133.144 78.0169 134.004C78.1125 133.856 78.2112 133.708 78.3068 133.56C77.0087 132.693 75.7106 131.827 74.4125 130.961V130.964ZM154.996 104.345C152.878 104.151 151.913 104.829 151.876 106.371C152.853 105.736 153.781 105.134 154.996 104.345ZM85.7438 147.922C85.7746 147.774 85.8024 147.623 85.8332 147.475C84.347 147.12 82.8609 146.766 81.3747 146.411C81.3346 146.605 81.2945 146.8 81.2544 146.994C82.7499 147.302 84.2453 147.614 85.7407 147.922H85.7438ZM153.781 123.2C153.883 123.286 153.985 123.375 154.086 123.462C155.68 122.632 156.362 121.636 155.875 120.659C155.153 121.532 154.466 122.364 153.778 123.2H153.781ZM78.6521 138.061C78.575 138.191 78.501 138.32 78.4239 138.447C79.4938 138.968 80.5638 139.492 81.6368 140.013C81.72 139.822 81.8064 139.631 81.8896 139.44C80.8104 138.98 79.7313 138.521 78.6521 138.058V138.061Z" fill="black"/>
<path d="M99.6891 299.154C96.3622 297.538 93.2048 296.111 90.1461 294.495C85.3761 291.979 82.6566 287.906 81.6885 282.658C81.5744 282.044 81.7008 281.088 82.1047 280.722C87.1244 276.174 90.2633 270.18 94.358 264.926C100.676 256.816 105.44 247.788 110.117 238.695C110.536 237.878 111.002 237.055 111.6 236.367C111.899 236.022 112.541 235.976 113.028 235.794C113.099 235.945 113.173 236.093 113.244 236.244C109.121 243.555 105.344 251.084 100.787 258.111C95.9336 265.591 90.5716 272.773 84.9507 279.698C83.0698 282.013 82.9033 283.74 84.1644 285.883C85.296 287.801 86.5139 289.851 88.2005 291.211C90.6734 293.206 93.5995 294.64 96.5009 296.058C92.7145 293.875 89.1317 291.507 86.6989 287.795C86.7729 287.668 86.8438 287.542 86.9178 287.415C87.3063 287.591 87.7503 287.696 88.0679 287.958C88.6599 288.445 89.181 289.022 89.7237 289.568C94.1267 294.008 99.501 295.201 105.535 294.442C112.001 293.632 118.482 292.929 124.96 292.222C126.847 292.016 128.756 291.791 130.643 291.859C136.27 292.065 141.65 290.739 147.016 289.37C151.23 288.291 155.381 286.959 159.577 285.803C160.117 285.655 160.758 285.886 161.353 285.942C161.023 286.42 160.801 287.098 160.345 287.345C158.199 288.498 155.991 289.534 153.805 290.613C153.867 290.764 153.928 290.915 153.99 291.066C157.727 289.583 161.452 288.06 165.207 286.626C170.813 284.486 176.394 282.266 182.076 280.352C186.587 278.831 190.482 276.389 194.222 273.55C202.134 267.54 209.706 261.139 216.252 253.656C218.898 250.631 221.007 247.119 223.178 243.712C223.859 242.642 224.01 241.202 224.263 239.904C224.54 238.476 223.779 237.678 222.4 237.419C221.845 237.314 221.253 237.32 220.742 237.12C220.399 236.984 220.162 236.574 219.878 236.287C220.168 236.068 220.436 235.698 220.751 235.658C224.121 235.224 226.181 237.419 225.536 240.764C224.651 245.365 221.901 248.966 219.117 252.537C218.207 253.702 217.242 254.827 216.129 256.184C218.87 256.887 221.34 257.026 223.745 255.833C225.632 254.898 227.463 253.853 229.363 252.95C229.739 252.771 230.312 253.008 230.793 253.055C230.584 253.52 230.479 254.091 230.14 254.43C229.582 254.985 228.336 255.398 228.342 255.854C228.358 256.739 229.024 257.624 229.458 258.491C229.659 258.891 229.955 259.246 230.257 259.696C230.738 259.332 231.108 258.95 231.558 258.75C231.866 258.611 232.523 258.586 232.606 258.74C232.791 259.079 232.736 259.56 232.727 259.983C232.727 260.1 232.542 260.22 232.428 260.322C228.348 264.078 223.982 267.42 218.441 268.65C216.619 269.054 214.664 268.999 212.777 268.937C210.758 268.872 209.059 269.369 207.603 270.805C203.715 274.641 198.757 276.433 193.725 278.162C190.346 279.325 186.88 280.5 183.831 282.306C174.374 287.915 164.208 291.523 153.423 293.144C144.684 294.458 136.057 296.215 127.415 297.985C123.721 298.741 119.873 298.716 116.108 299.157C115.353 299.246 114.246 299.66 113.996 300.227C111.542 305.792 107.12 309.764 103.065 314.04C102.606 314.524 102.153 315.036 101.613 315.412C101.154 315.733 100.571 315.881 100.041 316.103C99.871 315.619 99.7014 315.132 99.5072 314.577C97.8483 313.689 96.0877 312.748 94.1668 311.719C93.3035 312.967 92.3692 314.235 91.5367 315.57C91.1328 316.22 91.4226 316.612 92.2335 316.578C94.7126 316.479 97.3642 318.264 98.1906 320.558C98.9337 322.624 98.0272 323.981 95.8596 324.132C90.4452 324.505 85.3422 323.648 81.2075 319.862C77.4211 316.396 74.8928 312.298 75.8763 306.807C76.1569 305.237 76.678 304.898 77.9884 305.82C79.7953 307.087 81.4726 308.543 83.2887 309.795C85.0987 311.043 87.0011 312.163 88.8912 313.288C89.4092 313.596 90.0351 313.726 90.6579 313.954C93.7629 309.761 97.1453 304.59 99.6922 299.16L99.6891 299.154ZM227.815 262.015C228.197 261.574 228.583 261.136 229.215 260.405C228.459 260.008 227.769 259.323 227.223 259.422C225.795 259.687 224.432 260.294 222.965 260.791C223.079 261.114 223.221 261.632 223.264 261.623C224.747 261.349 226.218 261.025 227.719 260.704C227.759 261.195 227.79 261.617 227.815 262.027C226.541 262.332 225.265 262.641 223.924 262.961C224.059 263.822 224.383 264.182 225.234 263.63C226.085 263.079 226.952 262.551 227.812 262.012L227.815 262.015ZM126.89 294.936C119.327 295.494 111.764 296.049 104.2 296.607C106.435 296.934 108.757 297.476 111.017 297.295C115.8 296.912 120.551 296.166 125.309 295.528C125.845 295.457 126.351 295.124 126.884 294.927C127.994 294.89 129.114 294.927 130.211 294.797C132.872 294.483 135.524 294.088 138.182 293.727L138.105 293.181C134.368 293.764 130.631 294.35 126.89 294.933V294.936ZM222.595 265.064C221.972 263.091 221.401 261.244 220.794 259.412C220.689 259.098 220.461 258.626 220.221 258.58C218.472 258.247 216.712 257.957 214.945 257.775C214.6 257.738 214.152 258.185 213.829 258.487C211.55 260.633 209.287 262.792 207.042 264.972C206.749 265.255 206.345 265.829 206.45 266.023C206.648 266.387 207.147 266.652 207.573 266.819C209.207 267.451 210.829 266.563 212.635 266.957C216.043 267.701 219.576 267.072 222.592 265.061L222.595 265.064ZM112.889 299.101C109.013 299.101 105.43 299.089 101.851 299.123C101.527 299.126 101.033 299.357 100.913 299.619C100.306 300.951 99.797 302.327 99.2297 303.745C99.9481 304.081 100.537 304.383 101.144 304.636C102.896 305.367 104.644 306.104 106.414 306.776C106.781 306.915 107.444 306.976 107.641 306.767C109.704 304.562 111.662 302.271 112.886 299.098L112.889 299.101ZM100.241 306.326C98.9275 305.287 98.0518 305.154 97.3735 306.727C97.0127 307.562 96.393 308.287 95.8935 309.061C95.3292 309.933 95.5327 310.639 96.4207 311.108C97.7343 311.802 99.0632 312.471 100.411 313.094C100.657 313.208 101.157 313.165 101.333 312.986C102.769 311.546 104.157 310.057 105.56 308.58C105.051 308.404 104.536 308.462 104.24 308.746C103.395 309.557 102.677 310.504 101.82 311.305C101.561 311.546 101.018 311.484 100.605 311.561C100.725 311.133 100.728 310.609 100.987 310.294C101.727 309.4 102.575 308.592 103.519 307.602C102.723 307.241 102.187 306.995 101.622 306.739C100.938 307.849 100.383 308.894 99.6768 309.825C99.3407 310.266 98.7117 310.479 98.2153 310.797C98.317 310.205 98.2923 309.548 98.5482 309.033C98.9984 308.123 99.6182 307.3 100.241 306.323V306.326ZM176.788 284.452C176.714 284.264 176.637 284.079 176.563 283.891C172.9 285.347 169.237 286.802 165.574 288.26C165.657 288.464 165.738 288.67 165.821 288.874C169.478 287.4 173.132 285.926 176.788 284.452V284.452ZM226.692 256.431C225.293 257.035 224.072 257.535 222.885 258.102C222.644 258.216 222.533 258.605 222.363 258.864C222.644 258.996 222.974 259.295 223.199 259.231C224.546 258.845 225.872 258.373 227.303 257.899C227.062 257.319 226.893 256.915 226.692 256.428V256.431ZM200.968 273.007C201.085 273.155 201.202 273.306 201.32 273.454C203.274 271.943 205.229 270.429 207.187 268.918C207.064 268.709 206.944 268.496 206.82 268.286C206.259 268.592 205.621 268.811 205.152 269.224C204.363 269.914 203.715 270.765 202.941 271.478C202.334 272.042 201.631 272.501 200.971 273.007H200.968Z" fill="black"/>
<path d="M139.502 168.648C142.262 167.668 144.364 165.784 146.649 164.162C148.089 163.138 149.625 162.106 151.28 161.557C159.797 158.726 168.001 155.322 175.223 149.837C177.221 148.32 179.348 146.942 181.525 145.687C187.781 142.07 193.439 137.655 198.813 132.866C199.942 131.861 200.95 130.588 201.638 129.246C203.889 124.859 207.601 121.991 211.545 119.346C211.976 119.056 212.704 119.213 213.373 119.398C209.861 122.555 205.362 124.569 203.762 129.502C205.532 127.917 207.28 126.305 209.081 124.754C211.874 122.352 214.637 119.904 217.573 117.687C218.232 117.187 218.319 116.12 219.638 116.059C220.906 115.997 221.747 116.352 222.487 117.11C223.591 118.245 224.569 119.503 225.398 120.474C227.387 118.766 229.376 117.048 231.377 115.343C231.568 115.18 231.802 115.032 232.043 114.964C232.795 114.754 233.56 114.588 234.321 114.403C234.374 115.165 234.429 115.929 234.479 116.691C234.488 116.839 234.479 116.987 234.479 117.388C235.69 116.678 236.723 115.96 237.849 115.439C239.982 114.446 242.144 113.503 244.345 112.682C244.903 112.476 246.01 112.593 246.248 112.96C246.541 113.41 246.337 114.347 246.069 114.952C245.687 115.812 245.051 116.561 244.438 117.489C245.397 117.489 246.198 117.52 246.994 117.483C248.326 117.418 248.841 118.125 248.881 119.349C248.94 121.054 247.885 122.198 246.871 123.363C246.541 123.739 246.195 124.103 245.656 124.695C246.414 124.782 246.901 124.859 247.389 124.883C247.746 124.902 248.107 124.809 248.465 124.831C249.843 124.92 251.419 124.831 252.001 126.419C252.621 128.099 251.267 129.034 250.21 129.986C249.831 130.325 249.383 130.606 248.927 130.834C247.956 131.318 246.979 131.645 247.46 133.184C247.564 133.523 246.439 134.67 245.794 134.747C242.551 135.139 239.279 135.305 236.017 135.533C235.437 135.573 234.852 135.539 234.124 135.539C234.929 137.738 235.881 139.693 236.347 141.759C237.167 145.397 237.818 149.088 238.246 152.791C238.361 153.781 237.701 155.214 236.917 155.899C230.202 161.782 223.798 168.056 216.182 172.842C208.366 177.754 199.843 180.587 190.735 182.002C186.252 182.699 181.901 184.222 177.44 185.132C174.853 185.659 172.173 185.733 169.528 185.931C169.238 185.952 168.905 185.447 168.593 185.184C168.852 184.929 169.139 184.432 169.37 184.457C175.448 185.089 180.677 181.716 186.446 180.88C190.399 180.307 194.364 179.662 198.24 178.709C208.215 176.252 216.82 171.164 224.572 164.526C228.201 161.418 231.815 158.298 235.456 155.205C236.637 154.203 236.914 152.93 236.816 151.471C236.304 143.824 233.665 136.841 229.887 130.298C227.637 126.397 225.016 122.697 222.398 119.022C220.989 117.042 220.829 117.181 218.972 118.76C215.726 121.519 212.433 124.223 209.18 126.977C208.359 127.671 207.623 128.46 206.849 129.206C205.446 130.56 204.16 132.064 202.621 133.239C196.106 138.222 189.471 143.05 182.962 148.039C177.581 152.165 171.689 155.288 165.473 157.962C160.863 159.941 156.485 162.454 152.005 164.736C151.308 165.09 150.685 165.476 149.921 164.739C149.711 164.538 148.952 164.705 148.573 164.924C146.526 166.099 144.534 167.372 142.49 168.556C140.936 169.456 140.415 169.441 139.505 168.655L139.502 168.648ZM245.156 132.931C243.319 132.931 241.478 132.968 239.643 132.903C239.233 132.888 238.838 132.512 238.438 132.302C238.795 131.972 239.104 131.485 239.526 131.343C240.195 131.121 240.938 131.127 241.654 131.047C244.515 130.726 247.419 130.507 249.652 128.364C250.016 128.016 250.176 127.452 250.429 126.986C249.926 126.798 249.399 126.394 248.927 126.453C246.245 126.783 243.574 127.208 240.907 127.64C239.902 127.803 238.919 128.182 237.91 128.232C237.386 128.256 236.84 127.779 236.304 127.529C236.782 127.239 237.229 126.773 237.741 126.69C241.425 126.08 244.351 124.248 246.565 121.288C247.003 120.705 247.176 119.925 247.601 118.929C246.433 119.043 245.683 118.976 245.039 119.207C242.44 120.135 239.89 121.196 237.287 122.108C236.785 122.284 236.125 122.01 235.536 121.942C235.9 121.498 236.19 120.94 236.643 120.628C238.866 119.105 241.163 117.69 243.368 116.142C243.923 115.753 244.225 115.004 244.644 114.421C243.892 114.369 243.362 114.523 242.853 114.727C238.709 116.382 235.071 118.834 231.704 121.738C231.303 122.084 230.587 122.065 230.017 122.216C230.177 121.692 230.245 121.119 230.513 120.656C231.334 119.244 232.231 117.872 233.097 116.487C232.878 116.308 232.659 116.13 232.44 115.951C230.803 117.452 229.117 118.905 227.544 120.468C226.582 121.424 226.696 122.478 227.449 123.662C229.151 126.342 230.717 129.107 232.32 131.849C232.724 132.539 233.057 133.27 233.217 133.581C237.442 133.995 241.33 134.303 245.156 132.937V132.931Z" fill="black"/>
<path d="M145.786 213.234C146.511 203.022 143.033 193.18 143.662 183.017C144.645 186.18 144.482 189.513 145.018 192.742C145.567 196.032 146.128 199.328 146.467 202.645C146.81 206.003 146.884 209.392 147.087 213.018C149.159 212.589 151.231 212.136 153.316 211.738C155.782 211.263 158.252 210.795 160.737 210.422C161.212 210.351 161.758 210.742 162.27 210.918C161.85 211.199 161.462 211.667 161.012 211.738C148.555 213.662 136.508 217.27 124.409 220.646C122.954 221.053 121.619 221.867 120.169 222.302C118.93 222.675 117.573 222.663 116.331 223.026C114.663 223.517 113.053 224.217 111.413 224.806C110.565 225.111 109.961 225.521 110.124 226.585C110.167 226.868 109.905 227.46 109.76 227.47C109.347 227.494 108.78 227.42 108.53 227.149C107.66 226.212 106.819 225.228 106.116 224.164C103.831 220.711 102.85 216.783 102.126 212.774C101.676 210.274 101.373 210.036 98.8049 209.617C94.2292 208.868 90.0359 209.873 86.1107 212.216C77.7919 217.18 69.9262 222.737 63.0842 229.653C62.4922 230.251 61.7337 230.689 60.9752 231.259C61.6258 231.786 62.4398 232.36 63.149 233.047C63.9167 233.794 64.6691 234.586 65.258 235.474C65.5448 235.909 65.7051 236.824 65.4523 237.114C65.1624 237.45 64.1943 237.602 63.7965 237.367C62.0452 236.334 60.3524 235.187 58.7244 233.966C58.2033 233.575 57.9474 232.899 58.8415 232.344C59.1622 232.144 59.2116 231.512 59.597 231.262C60.0595 230.744 60.5066 230.217 60.9845 229.711C62.4244 228.185 63.8304 226.625 65.332 225.163C66.4297 224.093 67.6569 223.153 68.7885 222.185C68.7885 222.024 68.8316 221.883 68.7823 221.83C65.0915 217.883 64.9805 213.224 65.8963 208.263C66.8398 203.157 69.5192 199.34 73.7896 196.47C80.684 191.832 88.1889 188.391 95.7401 185.024C96.7699 184.565 97.8059 184.115 98.8666 183.738C99.7854 183.412 100.618 183.563 101.238 184.34C98.8296 185.336 96.5201 186.211 94.2755 187.229C87.119 190.475 80.0211 193.839 73.6324 198.498C69.5099 201.505 67.2437 205.618 67.6877 210.653C67.922 213.305 69.3589 215.873 70.4165 218.411C70.6292 218.919 71.5665 219.129 72.1277 219.453C75.9079 216.946 79.6758 214.461 83.4313 211.954C88.8765 208.322 94.7503 207.052 101.244 208.781C101.324 205.347 99.8841 202.013 101.114 198.643C103.106 207.422 103.103 216.746 108.265 224.466C111.456 223.298 114.37 222.197 117.314 221.176C118.239 220.856 118.131 220.338 117.934 219.622C116.127 213.157 114.336 206.682 112.541 200.213C111.869 197.792 111.126 195.387 110.571 192.939C110.327 191.866 110.226 190.645 110.5 189.603C110.858 188.243 110.482 187.312 109.563 186.449C108.625 185.567 108.758 184.975 109.917 184.377C117.2 180.612 124.776 177.636 132.811 175.959C134.439 175.62 136.184 175.814 137.877 175.845C138.315 175.854 138.75 176.169 139.188 176.591C128.945 177.02 120.037 181.296 111.175 185.422C115.23 195.517 118.005 205.747 120.894 215.941C121.005 216.336 121.101 216.736 121.209 217.131C121.936 219.783 121.93 219.755 124.628 219.012C131.649 217.082 138.676 215.176 145.792 213.237L145.786 213.234ZM114.135 200.29C114.256 200.262 114.376 200.231 114.493 200.203C113.571 197.151 112.652 194.098 111.73 191.046C111.585 191.089 111.441 191.132 111.299 191.175C112.245 194.213 113.189 197.25 114.135 200.287V200.29Z" fill="black"/>
<path d="M57.4722 233.223C56.4979 233.134 55.5081 233.118 54.5492 232.946C51.3209 232.366 48.1235 231.493 44.8705 231.176C39.5271 230.655 35.2042 233.122 31.3839 236.223C33.4529 238.453 35.4324 240.5 37.304 242.643C37.9854 243.42 38.9228 244.567 37.8559 245.44C37.3718 245.837 35.8209 245.477 35.124 244.959C33.4529 243.719 31.9019 242.276 30.4836 240.747C29.2133 239.375 28.2605 238.342 25.9541 238.16C22.5316 237.888 19.4544 238.69 16.2786 239.39C15.5417 239.55 14.8756 240.025 14.1757 240.355C14.2251 240.472 14.2744 240.586 14.3237 240.703C15.7051 240.407 17.0772 240.037 18.4739 239.852C18.9518 239.791 19.4914 240.195 20.0064 240.386C19.6055 240.747 19.2448 241.348 18.7946 241.428C13.8057 242.307 9.92994 245.063 6.48892 248.572C5.33266 249.75 4.79 253.08 5.61017 254.523C5.85684 254.958 6.53517 255.3 7.06859 255.39C8.18785 255.581 9.26395 255.362 10.3123 256.352C10.895 256.903 12.3689 256.589 13.4357 256.54C19.8707 256.231 26.1145 254.918 32.3398 253.259C43.8314 250.197 55.4033 247.45 66.9289 244.518C70.706 243.556 74.4368 242.424 78.1893 241.369C78.7196 241.221 79.2561 241.086 79.7834 240.944C79.919 241.166 80.0794 241.308 80.0578 241.416C79.7402 243.272 80.7824 244.444 82.0743 245.501C83.7763 246.895 85.7651 247.41 87.9204 247.558C92.7581 247.891 97.8796 241.77 98.08 237.784C98.1571 236.245 98.1386 234.7 98.08 233.162C98.0523 232.412 97.9536 231.561 96.5846 231.7C96.5846 233.374 96.6432 235.052 96.5476 236.717C96.5198 237.176 96.0296 237.608 95.7521 238.052C95.5177 237.611 95.1076 237.179 95.083 236.729C94.9997 235.209 95.0522 233.683 95.0522 231.993C93.4056 232.604 93.011 233.704 92.8475 235.138C92.7119 236.313 92.2679 237.478 91.7961 238.576C91.6635 238.887 90.9544 238.949 90.5104 239.125C90.3593 238.718 90.0263 238.277 90.0972 237.91C90.3007 236.812 90.5998 235.721 90.979 234.672C91.4508 233.368 91.5741 232.126 90.6522 230.396C89.647 232.428 88.7405 234.108 87.9851 235.856C87.5226 236.929 87.353 238.126 86.9368 239.223C86.7918 239.609 86.3047 239.868 85.9748 240.182C85.7867 239.757 85.392 239.304 85.4506 238.915C85.6356 237.651 86.0858 236.424 86.2399 235.16C86.3818 233.985 86.2707 232.779 86.2707 231.586C86.1012 231.512 85.9316 231.441 85.762 231.367C84.7969 232.829 83.5636 234.188 82.9438 235.782C82.3333 237.346 82.3426 239.153 81.8677 240.839C80.6282 239.186 80.7608 237.352 81.4792 235.708C82.2069 234.043 83.246 232.459 84.4115 231.059C86.1536 228.962 87.1341 229.218 87.7878 231.176C88.537 230.624 89.4096 229.671 90.4888 229.255C92.1137 228.626 92.2864 230.254 92.6471 230.951C94.3769 230.612 95.9494 230.276 97.5373 229.998C98.746 229.785 99.338 230.461 99.6001 231.555C101.166 238.095 98.7183 244.234 93.0973 247.857C89.8536 249.947 84.8277 249.556 81.6334 247.151C80.6745 246.429 79.3764 246.152 78.2324 245.683C77.3074 245.304 76.3917 244.9 75.442 244.589C74.9579 244.431 74.3721 244.305 73.9003 244.425C58.1937 248.415 42.4963 252.426 26.799 256.453C19.6733 258.282 12.4645 258.997 5.12608 258.266C4.60499 258.214 3.95133 258.34 3.53508 258.633C2.31099 259.503 1.5463 258.932 1.09613 257.869C-0.291376 254.597 -0.510294 251.298 1.30889 248.091C3.29765 244.592 6.18059 242.014 9.7912 240.284C12.1962 239.131 14.6629 238.107 17.1049 237.031C20.5274 235.523 24.0394 235.388 27.6562 236.245C28.205 236.374 29.056 236.165 29.4723 235.786C35.0223 230.729 41.3154 228.33 48.845 230.171C51.4843 230.815 54.1114 231.509 56.7384 232.2C57.0436 232.28 57.3211 232.48 57.611 232.625C57.5678 232.822 57.5246 233.017 57.4845 233.214L57.4722 233.223ZM30.6686 237.833C30.5052 238.002 30.3449 238.172 30.1814 238.342C31.8588 240.293 33.4035 242.381 35.7685 243.605C35.8856 243.485 36.0059 243.361 36.1231 243.241L30.6686 237.836V237.833Z" fill="black"/>
<path d="M196.54 193.981C196.173 193.25 195.973 192.995 195.911 192.708C195.443 190.574 194.576 189.628 192.427 189.365C184.056 188.339 176.021 189.156 168.762 193.929C168.13 194.345 167.597 194.903 166.989 195.359C166.755 195.535 166.444 195.612 166.166 195.736C166.074 195.421 165.812 195.005 165.926 194.811C166.222 194.299 166.616 193.79 167.088 193.439C171.812 189.899 177.124 187.833 183.023 187.574C186.239 187.432 189.476 187.67 192.702 187.802C193.346 187.83 194.098 187.987 194.595 188.36C195.988 189.406 196.92 188.832 198.03 187.842C200.916 185.268 204.264 183.575 208.103 182.832C211.017 182.268 213.872 181.401 216.792 180.902C220.159 180.325 223.31 181.01 226.131 183.091C226.548 183.399 227.571 183.43 227.972 183.131C231.404 180.584 235.341 179.597 239.482 179.23C241.832 179.021 244.221 178.709 246.549 178.913C250.246 179.234 253.922 179.896 257.585 180.525C258.886 180.747 259.336 181.848 258.741 183.168C257.643 185.598 256.567 188.049 255.247 190.358C254.671 191.367 253.641 192.258 252.611 192.84C244.295 197.546 235.779 201.881 226.766 205.072C222.441 206.604 217.883 207.505 213.403 208.578C207.523 209.987 201.656 211.479 195.714 212.577C189.313 213.761 182.835 214.541 176.388 215.481C175.836 215.562 175.194 215.666 174.716 215.469C174.217 215.263 173.862 214.704 173.566 214.183C176.767 213.946 179.674 213.542 182.474 212.213C183.649 211.655 185.181 211.797 186.556 211.717C194.734 211.251 202.544 209.198 210.175 206.342C220.643 202.427 231.151 198.616 241.557 194.546C244.49 193.398 247.237 191.669 249.87 189.908C252.491 188.157 253.037 186.094 252.09 183.507C251.618 183.612 251.134 183.717 250.656 183.822C250.619 183.088 250.838 182.092 250.493 181.824C249.978 181.423 249.065 181.481 248.319 181.429C241.32 180.945 235.166 183.661 229.073 186.575C226.853 187.636 226.723 187.762 225.172 185.918C222.576 182.826 219.203 182.884 215.716 183.23C211.02 183.692 206.589 185.107 202.349 187.145C200.259 188.151 198.921 189.846 197.956 191.915C197.657 192.56 197.145 193.106 196.531 193.984L196.54 193.981ZM251.181 191.407C255.038 189.603 254.803 185.258 257.341 182.311C255.716 182.083 254.538 181.916 253.101 181.713C255.127 185.653 254.076 188.721 251.181 191.407ZM218.716 205.362C218.799 205.55 218.882 205.738 218.969 205.923C223.076 204.471 227.183 203.019 231.29 201.566C231.228 201.387 231.163 201.212 231.102 201.033C226.973 202.476 222.848 203.916 218.719 205.359L218.716 205.362Z" fill="black"/>
<path d="M69.6394 28.0285C67.2128 29.5178 66.257 31.7748 66.0535 34.5375C69.8707 29.82 74.3415 26.4375 80.7765 26.9432C80.869 26.7921 81.0016 26.6719 81.0108 26.5424C81.6676 16.3735 87.1313 9.35265 95.7092 4.54879C100.775 1.7121 106.279 0.0717539 112.159 0.000836712C115.766 -0.0423303 118.44 1.58568 120.262 4.6752C122.226 8.00215 122.701 11.7176 123.083 15.4546C123.222 16.8205 123.348 18.1865 123.515 19.9224C124.243 19.2071 124.767 18.6952 125.288 18.1834C133.419 10.1728 147.651 10.3239 154.854 18.7692C159.661 24.4056 160.342 31.041 157.318 37.6764C153.781 45.431 148.558 52.0325 141.79 57.2958C141.257 57.7089 140.199 57.4468 139.385 57.4962C139.394 56.9751 139.385 56.4509 139.425 55.9329C139.434 55.8065 139.576 55.6153 139.69 55.5845C143.171 54.7119 145.083 51.829 147.207 49.3931C149.582 46.6705 151.382 43.4577 153.655 40.6364C155.421 38.4441 156.51 36.0206 157.034 33.335C158.745 24.5752 153.781 16.6849 144.972 14.5142C137.445 12.658 130.844 14.5574 125.482 20.2647C124.724 21.0725 124.236 22.127 123.589 23.0458C123.253 23.5238 122.846 23.9524 122.47 24.4056C122.272 23.8013 121.967 23.2062 121.899 22.5864C121.434 18.2111 121.057 13.8266 120.555 9.45441C120.447 8.5109 120.003 7.5859 119.605 6.70097C117.774 2.60936 115.002 1.02452 110.528 1.49319C102.24 2.35961 94.8983 5.33505 89.0738 11.4463C85.5588 15.134 83.2956 19.537 82.5926 24.6307C82.3829 26.1415 82.3552 27.6585 83.7118 28.8826C84.1312 29.2619 84.0664 30.1776 84.2268 30.8498C83.6718 30.9577 83.1168 31.0626 82.5648 31.1705C81.9636 31.2877 81.3407 31.3339 80.7703 31.5405C76.5492 33.0606 72.732 35.3238 69.7257 38.6384C65.9116 42.841 64.518 48.0457 65.5755 53.5186C66.0565 56.0038 67.7061 58.4643 69.3989 60.4439C70.5459 61.7851 72.7012 62.2569 74.3847 63.1541C74.7547 63.3515 75.0414 63.7091 75.3652 63.9897C74.952 64.1932 74.4864 64.6372 74.1411 64.5571C73.0527 64.3042 71.8779 64.0514 70.9745 63.444C67.2159 60.9125 63.0935 58.5476 62.2363 53.5587C61.7984 51.0057 61.5302 48.2677 61.9773 45.7517C62.8314 40.9293 64.1911 36.1933 65.4769 31.4572C65.7575 30.4212 66.5129 29.45 67.2406 28.6144C67.7061 28.0779 68.5201 27.8405 69.1769 27.4674C69.3311 27.6555 69.4883 27.8435 69.6425 28.0285H69.6394ZM77.9244 29.9587C71.2705 29.1971 62.8468 39.326 64.3576 45.6592C65.2672 43.7074 66.2385 41.6385 67.1943 39.5634C67.2776 39.3845 67.2714 39.1687 67.3331 38.9806C67.6167 38.108 67.6568 36.9703 68.2457 36.4214C69.9848 34.7996 71.8748 33.3165 73.8389 31.9691C75.0784 31.1212 76.5554 30.6186 77.9244 29.9587V29.9587Z" fill="black"/>
<path d="M111.644 232.612C110.321 235.184 107.829 235.748 105.446 236.451C104.176 236.824 102.887 237.148 101.592 237.404C101.225 237.478 100.796 237.237 100.396 237.142C100.584 236.772 100.676 236.278 100.972 236.056C102.579 234.866 104.318 233.944 106.306 233.522C106.627 233.454 106.787 232.81 107.12 232.569C107.58 232.239 108.369 231.69 108.603 231.848C109.79 232.652 110.398 232.184 111.415 231.363C115.026 228.456 119.081 226.291 123.515 224.818C127.597 223.464 131.516 221.426 135.688 220.581C139.169 219.875 142.551 218.83 146.017 218.117C150.386 217.22 154.746 216.261 159.121 215.386C159.513 215.308 159.988 215.638 160.425 215.78C160.095 216.135 159.821 216.711 159.429 216.804C155.643 217.707 151.696 218.145 148.067 219.462C141.719 221.765 135.617 224.747 129.305 227.158C124.285 229.076 119.105 230.58 113.984 232.23C113.262 232.464 112.47 232.48 111.644 232.606V232.612Z" fill="black"/>
<path d="M230.624 250.835C231.549 250.434 232.271 250.175 232.937 249.814C233.405 249.561 233.908 249.25 234.213 248.831C234.777 248.051 235.301 248.118 236.032 248.569C241.699 252.074 245.134 257.606 248.967 262.774C249.029 262.857 249.09 262.943 249.124 263.039C249.568 264.294 250.271 265.7 249.167 266.788C248.033 267.907 246.593 267.503 245.347 266.683C242.495 264.802 239.541 263.042 236.868 260.933C235.927 260.193 235.681 258.571 235.123 257.35C234.898 256.854 234.777 256.286 234.463 255.858C233.257 254.214 231.993 252.614 230.624 250.835V250.835ZM247.977 264.096C246.861 264.325 246.152 264.469 245.443 264.614L245.338 264.917C246.143 265.176 246.944 265.431 247.749 265.69C247.82 265.206 247.888 264.722 247.977 264.096Z" fill="black"/>
<path d="M167.431 213.692C165.889 214.127 165.356 213.267 165.143 211.981C165.103 211.731 165.063 211.38 164.897 211.272C162.698 209.851 162.794 207.399 162.341 205.29C161.372 200.779 160.645 196.216 159.843 191.668C159.593 190.247 159.624 188.844 160.651 187.357C160.891 187.885 161.079 188.212 161.194 188.563C161.718 190.154 162.248 191.745 162.726 193.348C164.117 198.007 165.686 202.623 166.787 207.35C167.431 210.122 168.338 212.656 170.074 214.87C170.524 215.444 171.23 215.909 171.914 216.196C181.525 220.208 191.127 224.244 201.206 226.988C203.087 227.5 204.916 228.221 206.766 228.847C206.713 229.051 206.658 229.257 206.605 229.461C205.637 229.31 204.666 229.165 203.698 229.004C195.891 227.715 188.58 224.857 181.3 221.91C178.639 220.83 175.963 219.785 173.308 218.687C170.838 217.664 168.661 216.264 167.431 213.689V213.692Z" fill="black"/>
<path d="M217.101 233.988C216.238 234.296 215.689 234.712 215.3 234.598C204.404 231.33 192.9 230.584 182.17 226.622C175.479 224.152 169.451 220.677 164.65 215.299C164.326 214.939 164.194 214.405 163.972 213.955C164.471 214.075 165.137 214.032 165.445 214.344C174.211 223.227 185.543 226.461 197.256 228.86C202.726 229.979 208.199 231.086 213.666 232.221C214.415 232.375 215.158 232.603 215.865 232.89C216.188 233.019 216.423 233.374 217.098 233.988H217.101Z" fill="black"/>
<path d="M193.824 246.379C193.969 247.304 194.225 248.232 194.231 249.157C194.24 250.458 194.983 251.322 196.251 251.279C198.332 251.208 200.419 251.217 202.494 251.075C203.509 251.004 204.508 250.665 205.883 250.366C204.819 249.13 204.07 248.26 203.244 247.295C203.262 247.249 203.376 246.971 203.512 246.638C203.712 246.808 203.9 246.965 204.169 247.19C204.23 246.758 204.273 246.478 204.338 246.04C205.269 246.324 206.191 246.472 206.978 246.882C207.961 247.394 208.969 247.995 209.703 248.8C210.335 249.49 210.943 250.539 210.893 251.393C210.866 251.911 209.611 252.444 208.831 252.808C207.918 253.233 206.931 253.52 205.957 253.792C202.769 254.68 199.55 255.068 196.281 254.217C195.637 254.051 194.952 253.949 194.376 253.64C193.691 253.274 192.742 252.836 192.55 252.225C192.119 250.859 191.946 249.37 191.955 247.93C191.959 247.363 192.726 246.805 193.149 246.24C193.374 246.284 193.599 246.33 193.827 246.373L193.824 246.379Z" fill="black"/>
<path d="M77.7203 58.7726C78.0317 59.4787 78.5034 60.157 78.6298 60.897C79.561 66.3022 80.2825 71.7474 81.337 77.1248C83.0329 85.7674 84.9507 94.3638 86.7267 102.991C86.8624 103.648 86.6065 104.385 86.5356 105.085C86.144 104.536 85.5643 104.042 85.3824 103.432C81.8489 91.5487 80.1037 79.3201 78.3862 67.0854C78.0101 64.409 77.5846 61.7388 77.1807 59.0655C77.3595 58.9669 77.5414 58.8682 77.7203 58.7695V58.7726Z" fill="black"/>
<path d="M102.107 149.127C102.384 149.353 102.779 149.522 102.918 149.812C105.643 155.507 110.685 157.064 116.398 157.24C122.176 157.419 127.43 155.652 132.086 152.269C132.999 151.606 133.489 150.37 134.207 149.423C134.392 149.177 134.806 148.813 134.938 148.878C135.25 149.026 135.715 149.479 135.657 149.664C135.41 150.469 135.16 151.375 134.614 151.973C131.91 154.952 128.405 156.676 124.603 157.687C119.494 159.047 114.317 159.679 109.205 157.619C106.272 156.438 103.809 154.647 102.363 151.739C102.005 151.018 101.897 150.17 101.672 149.377C101.817 149.294 101.962 149.211 102.107 149.124V149.127Z" fill="black"/>
<path d="M217.474 128.907C218.562 128.278 219.151 129.107 219.57 129.754C220.68 131.469 221.978 133.162 222.62 135.061C224.633 141.018 226.391 147.058 228.191 153.083C228.315 153.493 227.969 154.039 227.84 154.523C227.47 154.178 226.893 153.897 226.767 153.481C225.577 149.513 224.531 145.498 223.304 141.539C221.972 137.232 220.535 132.949 217.575 129.397C217.495 129.298 217.514 129.116 217.474 128.91V128.907Z" fill="black"/>
<path d="M146.51 187.186C145.773 185.564 146.565 184.435 148.462 183.698C150.222 183.017 151.875 182.064 153.605 181.303C154.557 180.883 155.14 181.349 155.112 182.345C155.075 183.671 155.106 185.058 154.718 186.295C154.496 187.001 153.583 187.657 152.828 187.993C151.579 188.552 150.179 188.764 148.893 189.255C146.689 190.093 146.488 189.982 146.51 187.186V187.186ZM148.32 187.694C149.307 187.398 150.167 187.084 151.049 186.88C153.543 186.31 154.033 185.542 153.451 182.977C149.029 184.148 147.777 185.262 148.32 187.694V187.694Z" fill="black"/>
<path d="M197.034 194.444C197.722 194.046 198.07 193.719 198.465 193.648C199.017 193.549 199.871 193.401 200.127 193.691C201.921 195.708 203.627 197.804 205.279 199.938C205.618 200.376 205.634 201.07 205.8 201.643C205.193 201.643 204.499 201.841 203.987 201.619C201.234 200.428 199.072 198.52 197.577 195.905C197.29 195.403 197.167 194.811 197.031 194.444H197.034Z" fill="black"/>
<path d="M103.589 142.184C101.379 141.817 99.1062 140.411 98.508 138.709C98.4032 138.413 98.6807 137.842 98.9551 137.583C99.9418 136.646 103.802 136.387 104.952 137.111C105.991 137.765 106.753 139.56 106.065 140.617C105.581 141.363 104.437 141.678 103.586 142.187L103.589 142.184Z" fill="black"/>
<path d="M207.659 243.29C206.164 243.432 205.226 242.562 204.314 241.566C203.956 241.175 203.46 240.882 202.979 240.635C201.875 240.071 202.39 239.251 203.019 239.14C205.248 238.748 207.487 237.851 209.79 238.751C211.168 239.291 211.467 240.237 210.675 241.495C209.975 242.602 209.223 243.644 207.662 243.287L207.659 243.29Z" fill="black"/>
<path d="M96.3071 216.955C96.819 219.194 97.7532 221.121 99.7512 222.28C99.8838 222.212 100.016 222.148 100.149 222.08C99.6186 221.059 99.2456 219.903 98.521 219.046C97.4387 217.769 96.0759 216.733 94.9042 215.528C94.5928 215.207 94.5465 214.63 94.377 214.171C94.8364 214.239 95.4006 214.152 95.7336 214.396C97.8611 215.938 99.8653 217.649 100.951 220.113C101.367 221.053 101.484 222.172 101.506 223.214C101.512 223.532 100.735 224.164 100.34 224.142C98.3051 224.044 95.1601 219.894 95.5116 217.896C95.561 217.618 95.7213 217.359 95.8323 217.091C95.9926 217.045 96.153 217.001 96.3133 216.955H96.3071Z" fill="black"/>
<path d="M132.012 140.652C131.784 140.525 130.973 140.325 130.692 139.828C130.507 139.498 131.007 138.694 131.327 138.182C132.351 136.548 133.742 135.33 135.774 135.428C136.44 135.462 137.377 136.017 137.633 136.585C137.898 137.167 137.722 138.24 137.318 138.783C136.147 140.349 134.306 140.534 132.012 140.652V140.652Z" fill="black"/>
<path d="M138.454 191.199C138.836 192.818 139.261 194.178 139.456 195.568C139.625 196.786 138.854 197.536 137.677 197.616C136.397 197.705 135.151 197.378 134.602 196.068C133.862 194.295 134.741 192.874 136.625 192.411C137.109 192.291 137.51 191.838 138.454 191.196V191.199Z" fill="black"/>
<path d="M120.298 200.678C120.363 199.815 120.517 198.745 121.886 198.686C123.462 198.619 125.105 200.518 125.068 202.241C125.04 203.506 123.989 204.403 122.568 204.372C121.266 204.344 120.277 202.827 120.298 200.678V200.678Z" fill="black"/>
<path d="M201.956 244.507C201.909 246.154 201.095 247.437 200.103 247.434C198.882 247.427 197.861 246.037 197.849 244.363C197.839 243.123 198.885 241.51 199.696 241.517C200.488 241.523 201.983 243.505 201.956 244.507Z" fill="black"/>
<path d="M188.903 250.662C189.545 251.377 190.131 251.809 190.408 252.392C190.846 253.308 191.167 254.304 191.37 255.299C191.663 256.73 190.772 257.476 189.397 257.066C187.756 256.576 187.078 255.118 187.741 253.53C188.071 252.743 188.382 251.948 188.9 250.665L188.903 250.662Z" fill="black"/>
<path d="M134.315 182.813C135.595 182.755 136.218 183.399 136.258 184.645C136.304 186.122 135.459 187.065 134.096 187.084C132.681 187.105 131.997 186.378 132.012 184.864C132.027 183.211 132.468 182.819 134.315 182.813Z" fill="black"/>
<path d="M120.184 188.823C120.135 189.831 119.882 190.642 118.615 190.593C117.317 190.54 116.58 189.757 116.614 188.262C116.635 187.315 116.302 186.051 117.807 185.897C118.939 185.78 120.169 187.38 120.181 188.823H120.184Z" fill="black"/>
<path d="M107.102 131.95C106.414 131.472 106.081 131.272 105.782 131.028C104.191 129.718 102.489 129.61 100.645 130.454C100.318 130.606 99.8681 130.495 99.4766 130.507C99.6184 130.109 99.6492 129.588 99.9237 129.335C101.342 128.025 105.81 128.515 106.843 130.106C107.086 130.482 106.991 131.074 107.102 131.953V131.95Z" fill="black"/>
<path d="M144.636 208.426C144.281 209.678 143.908 210.193 142.789 209.82C140.822 209.16 140.14 208.13 140.714 206.515C141.019 205.655 141.571 205.334 142.305 206.009C143.128 206.765 143.862 207.616 144.636 208.426V208.426Z" fill="black"/>
<path d="M129.78 131.894C129.993 131.321 130.039 130.556 130.446 130.211C132.047 128.848 134.017 128.543 136.052 128.703C136.366 128.728 136.65 129.159 136.946 129.403C136.77 129.606 136.594 129.986 136.413 129.989C134.112 130.029 131.868 130.198 130.23 132.286C130.079 132.156 129.931 132.024 129.78 131.894V131.894Z" fill="black"/>
<path d="M123.826 213.703C123.94 212.645 124.569 212.078 125.645 212.093C126.823 212.108 127.446 212.768 127.369 213.946C127.301 215.01 126.851 215.886 125.621 215.827C124.372 215.768 123.925 214.868 123.823 213.706L123.826 213.703Z" fill="black"/>
<path d="M226.132 189.427C226.465 189.427 226.53 189.409 226.564 189.427C227.96 190.318 229.382 191.175 230.723 192.141C230.945 192.301 230.819 192.942 230.856 193.362C230.489 193.389 230.029 193.571 229.767 193.42C228.592 192.733 227.43 192.005 226.363 191.166C226.058 190.926 226.055 190.263 225.981 189.782C225.956 189.615 226.135 189.418 226.132 189.427V189.427Z" fill="black"/>
<path d="M118.757 144.635C118.704 144.635 118.652 144.648 118.606 144.635C117.832 144.386 116.688 145.092 116.327 143.76C117.092 143.578 117.85 143.374 118.621 143.223C118.859 143.177 119.142 143.229 119.37 143.322C119.904 143.535 120.416 143.8 120.94 144.046C120.363 144.247 119.793 144.456 119.213 144.645C119.074 144.688 118.911 144.651 118.757 144.651C118.757 144.645 118.757 144.641 118.757 144.635V144.635Z" fill="black"/>
<path d="M73.6254 135.773C69.9408 134.506 65.9571 133.137 61.6064 131.642C63.5181 131.17 65.0721 130.772 66.6385 130.417C66.8451 130.371 67.1503 130.488 67.3292 130.633C69.506 132.391 71.6674 134.17 73.6254 135.773Z" fill="white"/>
<path d="M185.296 113.092C183.868 115.485 182.702 117.763 181.185 119.78C180.701 120.424 179.286 120.372 178.296 120.637L178.111 120.261C179.104 119.496 180.072 118.698 181.096 117.979C181.79 117.492 182.329 117.032 181.79 116.117C181.719 115.996 181.657 115.796 181.707 115.685C182.459 113.989 181.898 113.48 180.168 113.894C179.989 113.937 179.712 113.564 179.101 113.089H185.296V113.092Z" fill="white"/>
<path d="M63.4874 139.174C60.9776 137.013 58.4708 134.852 55.9609 132.687C56.0411 132.514 56.1182 132.345 56.1984 132.172C57.0648 132.077 57.9312 131.984 58.7915 131.892C59.3033 135.141 62.5624 136.196 63.4874 139.174V139.174Z" fill="white"/>
<path d="M149.362 99.3185C145.391 98.1962 141.173 97.9588 137.211 95.8744C139.039 95.1283 145.727 97.0677 149.362 99.3185Z" fill="white"/>
<path d="M122.852 94.7953C126.286 93.7192 130.967 93.861 133.31 95.1961H122.882L122.852 94.7953V94.7953Z" fill="white"/>
<path d="M161.477 110.555C162.001 110.154 162.488 109.883 162.843 109.488C163.284 108.998 163.617 108.406 163.996 107.86C163.401 107.626 162.806 107.394 162.211 107.16C162.131 107.259 162.051 107.354 161.97 107.453C161.804 106.947 161.637 106.445 161.311 105.455C163.194 106.485 164.699 107.311 166.469 108.276C164.838 109.393 163.95 111.36 161.477 110.558V110.555Z" fill="white"/>
<path d="M75.8428 123.557C76.0925 123.11 76.333 122.675 76.6075 122.179C78.7843 124.146 80.8964 126.058 83.0085 127.969C82.9222 128.096 82.8358 128.219 82.7495 128.345C80.474 126.767 78.1954 125.188 75.8428 123.557Z" fill="white"/>
<path d="M75.6058 129.955C74.9645 129.653 74.3478 129.243 73.6725 129.085C73.1422 128.962 72.2881 128.934 72.0168 129.246C71.2089 130.168 70.7187 129.52 69.9756 129.082C71.1226 128.25 72.1802 127.485 73.3611 126.628C74.2522 127.621 75.131 128.604 76.0097 129.585C75.874 129.708 75.7415 129.832 75.6058 129.955V129.955Z" fill="white"/>
<path d="M69.877 137.42C72.7599 137.707 74.9861 139.421 77.4281 140.636C77.3633 140.827 77.2986 141.018 77.2338 141.209C75.908 140.815 74.4958 140.59 73.2871 139.973C72.0877 139.362 71.0887 138.351 69.877 137.423V137.42Z" fill="white"/>
<path d="M133.544 108.14C131.29 107.443 129.037 106.743 126.783 106.047C126.767 105.84 126.752 105.633 126.736 105.43C127.297 105.325 127.97 104.964 128.398 105.156C130.196 105.954 131.923 106.916 133.677 107.816C133.634 107.924 133.591 108.032 133.547 108.143L133.544 108.14Z" fill="white"/>
<path d="M139.181 80.3071C139.57 83.9547 139.736 87.5961 138.762 91.5829V80.2979C138.9 80.3009 139.042 80.304 139.181 80.3071Z" fill="white"/>
<path d="M152.909 100.734C153.55 101.175 154.191 101.613 154.811 102.036C152.976 102.822 151.299 103.537 149.625 104.256C149.606 104.154 149.588 104.052 149.569 103.95C150.701 103.056 151.829 102.162 152.961 101.268C152.943 101.089 152.927 100.913 152.909 100.734Z" fill="white"/>
<path d="M78.6144 117.486C78.7593 117.125 79.0553 116.379 79.3051 115.756C80.5908 117.624 81.8704 119.484 83.1562 121.355C81.7502 120.159 80.301 118.926 78.6113 117.486H78.6144Z" fill="white"/>
<path d="M75.9103 135.283C73.7797 133.849 71.6492 132.418 69.5186 130.985C69.5987 130.864 69.6758 130.747 69.756 130.627C72.457 131.194 73.8846 133.729 76.231 134.845C76.1231 134.99 76.0152 135.138 75.9073 135.283H75.9103Z" fill="white"/>
<path d="M83.0609 133.387C82.5214 133.818 82.2069 134.068 81.695 134.478C80.8255 133.541 79.9406 132.591 79.0557 131.638L79.3517 131.231C80.5295 131.916 81.7073 132.6 83.0609 133.387V133.387Z" fill="white"/>
<path d="M157.213 107.958C157.423 107.005 157.487 106.272 157.78 105.646C157.864 105.467 158.644 105.479 159.032 105.612C159.362 105.723 159.738 106.102 159.806 106.423C159.846 106.617 159.381 106.999 159.072 107.172C158.594 107.443 158.058 107.61 157.21 107.958H157.213Z" fill="white"/>
<path d="M149.461 106.654H144.216C146.257 105.42 148.536 105.353 149.461 106.654Z" fill="white"/>
<path d="M81.4201 111.572C81.6051 112.318 81.7963 113.062 81.969 113.811C82.0461 114.15 82.0831 114.495 82.1386 114.838C81.8456 114.838 81.5465 114.868 81.2598 114.834C80.8189 114.782 80.381 114.686 79.6719 114.563C80.3225 113.487 80.8929 112.55 81.4602 111.612L81.4232 111.575L81.4201 111.572Z" fill="white"/>
<path d="M148.036 151.721C149.097 150.682 148.742 148.471 151.184 148.57C150.256 149.735 149.328 150.901 148.397 152.066C148.277 151.952 148.156 151.838 148.036 151.724V151.721Z" fill="white"/>
<path d="M155.615 107.894C154.613 108.653 153.608 109.411 152.606 110.17C152.442 109.951 152.279 109.735 152.115 109.516C153.12 108.77 154.129 108.021 155.134 107.274C155.294 107.481 155.455 107.688 155.615 107.891V107.894Z" fill="white"/>
<path d="M161.175 115.821C160.08 117.113 158.986 118.408 157.817 119.786C157.484 118.692 157.866 118.232 161.175 115.821Z" fill="white"/>
<path d="M74.4054 130.957C75.7035 131.823 77.0016 132.69 78.2997 133.556C78.2041 133.704 78.1055 133.852 78.0099 134C76.6964 133.14 75.3828 132.277 74.0693 131.416C74.1803 131.265 74.2944 131.111 74.4054 130.96V130.957Z" fill="white"/>
<path d="M154.989 104.338C153.775 105.128 152.847 105.732 151.869 106.364C151.906 104.819 152.874 104.144 154.989 104.338Z" fill="white"/>
<path d="M85.7373 147.916C84.2418 147.608 82.7464 147.296 81.251 146.988C81.2911 146.794 81.3311 146.6 81.3712 146.405C82.8574 146.76 84.3436 147.114 85.8298 147.469C85.7989 147.617 85.7712 147.768 85.7403 147.916H85.7373Z" fill="white"/>
<path d="M153.774 123.193C154.462 122.361 155.15 121.525 155.871 120.652C156.358 121.63 155.677 122.626 154.083 123.455C153.981 123.369 153.879 123.279 153.778 123.193H153.774Z" fill="white"/>
<path d="M78.6461 138.052C79.7253 138.511 80.8045 138.971 81.8837 139.433C81.8004 139.624 81.7141 139.815 81.6308 140.007C80.5609 139.486 79.491 138.961 78.418 138.44C78.4951 138.311 78.5691 138.181 78.6461 138.055V138.052Z" fill="white"/>
<path d="M222.592 265.067C219.576 267.078 216.043 267.707 212.636 266.964C210.826 266.569 209.207 267.457 207.573 266.825C207.144 266.658 206.645 266.393 206.451 266.029C206.346 265.835 206.75 265.259 207.043 264.978C209.287 262.798 211.553 260.64 213.829 258.494C214.153 258.188 214.6 257.744 214.945 257.781C216.715 257.963 218.473 258.253 220.221 258.586C220.458 258.632 220.689 259.101 220.794 259.419C221.402 261.253 221.972 263.1 222.595 265.071L222.592 265.067Z" fill="white"/>
<path d="M112.89 299.104C111.665 302.277 109.708 304.568 107.645 306.773C107.447 306.982 106.785 306.921 106.418 306.782C104.645 306.11 102.896 305.373 101.148 304.642C100.538 304.389 99.9487 304.087 99.2334 303.751C99.8007 302.333 100.309 300.958 100.917 299.626C101.037 299.363 101.53 299.132 101.854 299.129C105.434 299.095 109.017 299.108 112.893 299.108L112.89 299.104Z" fill="white"/>
<path d="M100.241 306.329C99.6181 307.303 98.9983 308.13 98.5482 309.039C98.2922 309.557 98.3169 310.211 98.2152 310.803C98.7116 310.485 99.3406 310.27 99.6767 309.832C100.383 308.904 100.938 307.855 101.622 306.745C102.187 307.001 102.723 307.248 103.519 307.609C102.575 308.598 101.727 309.406 100.987 310.3C100.728 310.615 100.725 311.139 100.605 311.568C101.018 311.491 101.561 311.552 101.82 311.312C102.674 310.51 103.392 309.563 104.24 308.753C104.536 308.469 105.051 308.407 105.56 308.586C104.157 310.06 102.769 311.549 101.332 312.992C101.157 313.168 100.657 313.214 100.411 313.1C99.0631 312.48 97.7342 311.811 96.4207 311.114C95.5327 310.646 95.3291 309.94 95.8934 309.067C96.396 308.29 97.0127 307.569 97.3734 306.733C98.0548 305.16 98.9305 305.296 100.241 306.332V306.329Z" fill="white"/>
<path d="M126.869 294.918C126.351 295.128 125.845 295.461 125.309 295.532C120.551 296.17 115.797 296.916 111.017 297.298C108.754 297.48 106.436 296.938 104.2 296.611C111.764 296.053 119.327 295.498 126.891 294.94L126.869 294.921V294.918Z" fill="white"/>
<path d="M176.788 284.456C173.132 285.93 169.478 287.403 165.821 288.877C165.738 288.674 165.657 288.467 165.574 288.264C169.237 286.808 172.9 285.353 176.563 283.895C176.637 284.083 176.714 284.268 176.788 284.456V284.456Z" fill="white"/>
<path d="M227.824 262.043C227.79 261.621 227.759 261.201 227.719 260.708C226.218 261.032 224.744 261.355 223.264 261.627C223.221 261.636 223.079 261.118 222.965 260.794C224.433 260.298 225.795 259.69 227.223 259.425C227.766 259.323 228.456 260.011 229.215 260.409C228.58 261.136 228.197 261.577 227.815 262.018L227.827 262.043H227.824Z" fill="white"/>
<path d="M226.693 256.435C226.894 256.919 227.063 257.323 227.304 257.905C225.873 258.38 224.55 258.849 223.2 259.237C222.975 259.302 222.645 259.003 222.364 258.87C222.534 258.608 222.645 258.223 222.885 258.109C224.072 257.538 225.293 257.042 226.693 256.438V256.435Z" fill="white"/>
<path d="M200.972 273.011C201.632 272.505 202.335 272.046 202.942 271.481C203.713 270.766 204.364 269.918 205.153 269.227C205.622 268.817 206.26 268.598 206.821 268.29C206.944 268.5 207.065 268.712 207.188 268.922C205.233 270.433 203.278 271.947 201.32 273.458C201.203 273.31 201.086 273.159 200.969 273.011H200.972Z" fill="white"/>
<path d="M126.891 294.939C130.628 294.356 134.365 293.77 138.105 293.188L138.182 293.733C135.527 294.094 132.872 294.489 130.211 294.803C129.114 294.933 127.994 294.893 126.878 294.923C126.872 294.917 126.891 294.936 126.891 294.936V294.939Z" fill="white"/>
<path d="M227.815 262.015C226.955 262.554 226.088 263.081 225.237 263.633C224.386 264.185 224.066 263.822 223.927 262.964C225.268 262.641 226.541 262.335 227.821 262.036C227.824 262.042 227.815 262.018 227.815 262.018V262.015Z" fill="white"/>
<path d="M245.156 132.93C241.33 134.299 237.442 133.991 233.218 133.575C233.057 133.26 232.724 132.529 232.32 131.842C230.717 129.101 229.154 126.332 227.449 123.655C226.696 122.471 226.582 121.417 227.544 120.461C229.117 118.895 230.803 117.442 232.441 115.944C232.659 116.123 232.878 116.302 233.097 116.48C232.231 117.868 231.334 119.237 230.513 120.649C230.245 121.109 230.177 121.685 230.017 122.209C230.587 122.058 231.303 122.077 231.704 121.731C235.071 118.827 238.706 116.376 242.853 114.72C243.362 114.516 243.892 114.362 244.645 114.415C244.225 114.997 243.923 115.747 243.368 116.135C241.163 117.686 238.866 119.101 236.643 120.621C236.187 120.933 235.9 121.491 235.536 121.935C236.125 122.003 236.785 122.277 237.288 122.101C239.89 121.189 242.443 120.128 245.039 119.2C245.68 118.969 246.433 119.04 247.601 118.922C247.176 119.918 247 120.698 246.565 121.281C244.349 124.241 241.425 126.076 237.741 126.683C237.229 126.767 236.782 127.232 236.304 127.522C236.841 127.772 237.389 128.253 237.91 128.225C238.916 128.176 239.899 127.796 240.907 127.633C243.575 127.204 246.245 126.779 248.927 126.446C249.399 126.387 249.926 126.791 250.429 126.979C250.176 127.445 250.016 128.009 249.652 128.358C247.42 130.5 244.515 130.722 241.654 131.04C240.941 131.12 240.195 131.114 239.526 131.336C239.104 131.475 238.798 131.962 238.438 132.295C238.839 132.505 239.236 132.881 239.643 132.896C241.478 132.961 243.319 132.924 245.156 132.924V132.93Z" fill="white"/>
<path d="M114.135 200.29C113.188 197.253 112.244 194.215 111.298 191.178C111.443 191.135 111.588 191.092 111.73 191.049C112.651 194.101 113.57 197.154 114.492 200.206C114.372 200.234 114.252 200.265 114.135 200.293V200.29Z" fill="white"/>
<path d="M30.6659 237.832L36.1203 243.237C36.0032 243.358 35.8829 243.481 35.7658 243.601C33.4008 242.377 31.853 240.29 30.1787 238.338C30.3421 238.168 30.5025 237.999 30.6659 237.829V237.832Z" fill="white"/>
<path d="M251.178 191.403C254.073 188.717 255.124 185.65 253.099 181.709C254.532 181.912 255.71 182.079 257.338 182.307C254.801 185.255 255.035 189.599 251.178 191.403Z" fill="white"/>
<path d="M218.713 205.358C222.842 203.915 226.967 202.475 231.096 201.032C231.157 201.211 231.222 201.387 231.284 201.566C227.177 203.018 223.07 204.47 218.963 205.922C218.88 205.734 218.796 205.546 218.71 205.361L218.713 205.358Z" fill="white"/>
<path d="M77.9237 29.9586C76.5547 30.6153 75.0777 31.1179 73.8382 31.9689C71.8741 33.3133 69.9841 34.7994 68.245 36.4213C67.6561 36.9701 67.616 38.1079 67.3324 38.9805C67.2707 39.1716 67.2738 39.3844 67.1936 39.5632C66.2347 41.6383 65.2665 43.7073 64.3569 45.659C62.8492 39.3258 71.2698 29.197 77.9237 29.9586V29.9586Z" fill="white"/>
<path d="M247.977 264.097C247.888 264.72 247.817 265.204 247.749 265.691C246.944 265.432 246.143 265.176 245.338 264.917L245.443 264.615C246.152 264.47 246.861 264.325 247.977 264.097Z" fill="white"/>
<path d="M148.32 187.694C147.78 185.261 149.032 184.148 153.45 182.977C154.033 185.542 153.543 186.31 151.048 186.88C150.164 187.084 149.303 187.395 148.32 187.694V187.694Z" fill="white"/>
</svg>
