<svg width="28" height="28" viewBox="0 0 28 28" fill="none" xmlns="http://www.w3.org/2000/svg">
<path fill-rule="evenodd" clip-rule="evenodd" d="M18.4204 7.2C18.4204 4.758 17.2804 3 15.4134 3C14.3874 3 14.0354 3.602 13.6674 5C13.5924 5.29 13.5554 5.43 13.5164 5.569C13.4154 5.927 13.2394 6.539 12.9894 7.399C12.9825 7.42199 12.9724 7.44388 12.9594 7.464L10.0944 11.95C9.41621 13.0112 8.41551 13.8268 7.23938 14.277L6.76638 14.458C6.16242 14.6893 5.65932 15.1261 5.34549 15.6916C5.03165 16.2571 4.92716 16.9151 5.05038 17.55L5.45438 19.636C5.5726 20.2458 5.86309 20.8089 6.29145 21.2587C6.71981 21.7085 7.26809 22.0262 7.87138 22.174L15.4994 24.044C16.7155 24.3419 18 24.1477 19.0736 23.5035C20.1472 22.8593 20.923 21.8172 21.2324 20.604L22.6474 15.054C22.7697 14.5741 22.7808 14.0726 22.6797 13.5878C22.5787 13.103 22.3682 12.6476 22.0642 12.2566C21.7603 11.8656 21.3711 11.5492 20.9262 11.3316C20.4813 11.114 19.9926 11.0009 19.4974 11.001H17.6754C18.1714 9.368 18.4204 8.109 18.4204 7.2Z" fill="#A7A7A7"/>
</svg>
