<svg width="27" height="27" viewBox="0 0 27 27" fill="none" xmlns="http://www.w3.org/2000/svg">
<path d="M4.47113 9.78777C4.51639 9.22393 4.77236 8.69782 5.18807 8.31421C5.60378 7.93061 6.14873 7.71766 6.71438 7.71777H20.2796C20.8453 7.71766 21.3902 7.93061 21.8059 8.31421C22.2217 8.69782 22.4776 9.22393 22.5229 9.78777L23.4263 21.0378C23.4511 21.3474 23.4116 21.6587 23.3102 21.9523C23.2088 22.2459 23.0477 22.5153 22.8371 22.7436C22.6265 22.9718 22.3709 23.154 22.0864 23.2786C21.8019 23.4033 21.4947 23.4677 21.1841 23.4678H5.80988C5.4993 23.4677 5.19209 23.4033 4.90761 23.2786C4.62313 23.154 4.36753 22.9718 4.15692 22.7436C3.9463 22.5153 3.78522 22.2459 3.68383 21.9523C3.58243 21.6587 3.54291 21.3474 3.56776 21.0378L4.47113 9.78777Z" fill="#242424" stroke="#242424" stroke-width="2.58333" stroke-linecap="round" stroke-linejoin="round"/>
<path d="M18.0762 13.125V7.5C18.0762 6.30653 17.6021 5.16193 16.7582 4.31802C15.9142 3.47411 14.7696 3 13.5762 3C12.3827 3 11.2381 3.47411 10.3942 4.31802C9.55028 5.16193 9.07617 6.30653 9.07617 7.5V13.125" stroke="#242424" stroke-width="2.58333" stroke-linecap="round" stroke-linejoin="round"/>
</svg>
