<svg width="28" height="28" viewBox="0 0 28 28" fill="none" xmlns="http://www.w3.org/2000/svg">
<path fill-rule="evenodd" clip-rule="evenodd" d="M18.0868 9.501C18.309 8.57262 18.4204 7.80801 18.4204 7.2C18.4204 4.758 17.2804 3 15.4134 3C14.3874 3 14.0354 3.602 13.6674 5C13.5924 5.29 13.5554 5.43 13.5164 5.569C13.4154 5.927 13.2394 6.539 12.9894 7.399C12.9825 7.42199 12.9724 7.44388 12.9594 7.464L10.0944 11.95C9.41621 13.0112 8.41551 13.8268 7.23938 14.277L6.76638 14.458C6.16242 14.6893 5.65932 15.1261 5.34549 15.6916C5.03165 16.2571 4.92716 16.9151 5.05038 17.55L5.45438 19.636C5.5726 20.2458 5.86309 20.8089 6.29145 21.2587C6.71981 21.7085 7.26809 22.0262 7.87138 22.174L15.4994 24.044C16.7155 24.3419 18 24.1477 19.0736 23.5035C20.1472 22.8593 20.923 21.8172 21.2324 20.604L22.6474 15.054C22.7697 14.5741 22.7808 14.0726 22.6797 13.5878C22.5787 13.103 22.3682 12.6476 22.0642 12.2566C21.7603 11.8656 21.3711 11.5492 20.9262 11.3316C20.4813 11.114 19.9926 11.0009 19.4974 11.001H17.6754C17.8396 10.4603 17.9768 9.96058 18.0868 9.501ZM19.7789 20.2334L21.1939 14.6834C21.2598 14.425 21.2657 14.1549 21.2113 13.8939C21.1569 13.6328 21.0435 13.3877 20.8799 13.1771C20.7162 12.9665 20.5066 12.7962 20.2671 12.679C20.0276 12.5618 19.7644 12.5009 19.4977 12.501H15.6521L16.2401 10.5651C16.7248 8.9693 16.9204 7.88198 16.9204 7.2C16.9204 6.19037 16.6818 5.46634 16.3859 5.04117C16.1203 4.65958 15.8095 4.5 15.4134 4.5V4.5C15.3951 4.53606 15.3714 4.58578 15.3447 4.65276C15.2769 4.82293 15.2041 5.05479 15.1187 5.37897C15.0442 5.66712 15.004 5.81964 14.9606 5.97421L14.96 5.97629C14.8573 6.34027 14.68 6.95697 14.4298 7.81771L14.4273 7.82608C14.3803 7.98443 14.3111 8.13527 14.2218 8.27414L11.3586 12.7574C10.5075 14.089 9.25153 15.1129 7.77561 15.6779L7.3029 15.8588V15.8588C7.02857 15.964 6.79962 16.1626 6.65704 16.4195C6.51439 16.6765 6.46689 16.9756 6.5229 17.2642L6.92695 19.3505V19.3505C6.99065 19.6787 7.1471 19.9821 7.37769 20.2243C7.60834 20.4665 7.90357 20.6375 8.22842 20.7171L15.8563 22.5871V22.5871C16.6883 22.7908 17.5673 22.658 18.3018 22.2172C19.0364 21.7765 19.5672 21.0635 19.7789 20.2334Z" fill="#A7A7A7"/>
</svg>
