<svg width="27" height="27" viewBox="0 0 27 27" fill="none" xmlns="http://www.w3.org/2000/svg">
<path d="M20.25 13.7024L18.5625 15.5474L20.8125 17.9999H6.1875L8.4375 15.5474L6.75 13.7024L3.375 17.3811V22.4999C3.375 23.7374 4.3875 24.7499 5.625 24.7499H21.375C22.6125 24.7499 23.625 23.7374 23.625 22.4999V17.3924L20.25 13.7024Z" fill="#242424"/>
<path d="M11.9138 16.2222C12.7913 17.111 14.2201 17.1222 15.1088 16.2335L20.7113 10.631C21.5888 9.7535 21.5888 8.32475 20.7113 7.44725L16.7288 3.476C15.8513 2.5985 14.4226 2.5985 13.5451 3.476L7.97633 9.04475C7.55577 9.46482 7.31853 10.0343 7.31642 10.6287C7.31431 11.2231 7.54751 11.7942 7.96508 12.2172L11.9138 16.2222ZM15.1426 5.06225L19.1138 9.0335L13.5563 14.591L9.58509 10.6197L15.1426 5.06225Z" fill="#242424"/>
<rect x="8.67773" y="11.479" width="9.41523" height="7.19987" transform="rotate(-45 8.67773 11.479)" fill="#242424"/>
</svg>
