<svg width="28" height="28" viewBox="0 0 28 28" fill="none" xmlns="http://www.w3.org/2000/svg">
<path d="M19.9062 14.1377L13.4199 20.624C11.7676 22.2852 9.55273 22.1182 8.1377 20.6943C6.70508 19.2705 6.54688 17.0645 8.20801 15.4033L17.0762 6.53516C18.043 5.56836 19.4932 5.39258 20.4336 6.3418C21.3828 7.29102 21.207 8.72363 20.2402 9.69922L11.5391 18.4092C11.1436 18.8047 10.6777 18.6904 10.4053 18.4268C10.1416 18.1455 10.0273 17.6885 10.4229 17.2842L16.4873 11.2197C16.7949 10.9121 16.8125 10.4639 16.5225 10.165C16.2236 9.88379 15.7754 9.89258 15.4678 10.2002L9.36816 16.291C8.43652 17.2402 8.47168 18.6816 9.30664 19.5166C10.2119 20.4219 11.583 20.4043 12.5322 19.4551L21.2773 10.71C22.9736 9.01367 22.9121 6.78125 21.4268 5.28711C19.9678 3.83691 17.7002 3.73145 15.9951 5.42773L7.07422 14.3662C4.85059 16.5898 5 19.7803 7.02148 21.8018C9.04297 23.8145 12.2422 23.9727 14.4658 21.7578L20.9961 15.2275C21.2949 14.9375 21.2861 14.4014 20.9873 14.1113C20.6973 13.8037 20.2139 13.8477 19.9062 14.1377Z" fill="#A7A7A7"/>
</svg>
