<svg width="28" height="28" viewBox="0 0 28 28" fill="none" xmlns="http://www.w3.org/2000/svg">
<path fill-rule="evenodd" clip-rule="evenodd" d="M3.21094 10.7186C3.21094 7.63354 5.84743 5.20996 9.00094 5.20996C10.6439 5.20996 12.0673 6.05246 13.0261 6.80998C13.4158 7.11792 13.7453 7.42489 14.0009 7.68295C14.2566 7.42489 14.5861 7.11792 14.9758 6.80998C15.9346 6.05246 17.3579 5.20996 19.0009 5.20996C22.1544 5.20996 24.7909 7.63354 24.7909 10.7186C24.7909 11.8915 24.5439 13.8119 23.1628 16.0958C21.7855 18.3735 19.3067 20.9695 14.9124 23.5447L14.9093 23.5465C14.633 23.7068 14.3189 23.79 14.0009 23.79C13.683 23.79 13.3689 23.7068 13.0926 23.5465L13.0895 23.5447C8.69519 20.9695 6.21635 18.3735 4.83905 16.0958C3.458 13.8119 3.21094 11.8915 3.21094 10.7186ZM13.3789 9.34675L13.3771 9.34448L13.3628 9.32676C13.3491 9.31001 13.3274 9.28369 13.298 9.24916C13.2391 9.18004 13.1498 9.07842 13.0334 8.95515C12.7999 8.70767 12.462 8.37793 12.0466 8.04972C11.1956 7.37735 10.1189 6.78996 9.00094 6.78996C6.63245 6.78996 4.79094 8.59124 4.79094 10.7186C4.79094 11.6495 4.98138 13.2777 6.19108 15.2782C7.40452 17.2849 9.66968 19.7093 13.8884 22.1816L13.8853 22.1798C13.9176 22.1985 13.9577 22.21 14.0009 22.21C14.0437 22.21 14.0835 22.1987 14.1156 22.1803C18.3329 19.7085 20.5976 17.2846 21.8108 15.2782C23.0205 13.2777 23.2109 11.6495 23.2109 10.7186C23.2109 8.59124 21.3694 6.78996 19.0009 6.78996C17.8829 6.78996 16.8063 7.37735 15.9553 8.04972C15.5399 8.37793 15.202 8.70767 14.9684 8.95515C14.8521 9.07842 14.7628 9.18004 14.7039 9.24916C14.6745 9.28369 14.6528 9.31001 14.6391 9.32676L14.6248 9.34448M13.3789 9.34675L13.3796 9.34759C13.5293 9.53833 13.7584 9.64974 14.0009 9.64974C14.2437 9.64974 14.475 9.53554 14.6248 9.34448" fill="#BDBDBD"/>
</svg>
