<svg width="28" height="28" viewBox="0 0 28 28" fill="none" xmlns="http://www.w3.org/2000/svg">
<path d="M13.9395 4C19.4625 4 23.9395 8.47677 23.9395 13.9995C23.9395 19.5222 19.4625 23.999 13.9395 23.999C12.3434 24.0012 10.7703 23.6198 9.35246 22.887L5.52646 23.954C5.313 24.0136 5.08754 24.0153 4.87319 23.9591C4.65883 23.9028 4.46328 23.7906 4.30657 23.6339C4.14987 23.4772 4.03764 23.2817 3.98139 23.0673C3.92514 22.853 3.92689 22.6275 3.98646 22.4141L5.05446 18.5913C4.31981 17.1723 3.93738 15.5974 3.93946 13.9995C3.93946 8.47677 8.41646 4 13.9395 4ZM13.9395 5.49992C11.6851 5.49992 9.52311 6.39541 7.92905 7.98939C6.33499 9.58337 5.43946 11.7453 5.43946 13.9995C5.43946 15.4694 5.81246 16.8823 6.51246 18.1363L6.66246 18.4063L5.55046 22.3901L9.53746 21.2781L9.80746 21.4281C10.9418 22.0588 12.2056 22.4213 13.5018 22.4879C14.798 22.5545 16.0923 22.3233 17.2853 21.8122C18.4783 21.3011 19.5385 20.5235 20.3844 19.5392C21.2303 18.5549 21.8396 17.3899 22.1655 16.1337C22.4914 14.8774 22.5253 13.5632 22.2645 12.2918C22.0037 11.0204 21.4552 9.82559 20.6611 8.79902C19.867 7.77245 18.8483 6.94137 17.6831 6.3695C16.518 5.79764 15.2374 5.50017 13.9395 5.49992ZM10.6895 14.9994H15.1875C15.3775 14.9995 15.5604 15.0717 15.6992 15.2014C15.8381 15.3311 15.9225 15.5087 15.9355 15.6983C15.9484 15.8879 15.8889 16.0753 15.769 16.2227C15.6491 16.3701 15.4777 16.4665 15.2895 16.4924L15.1875 16.4994H10.6895C10.4994 16.4993 10.3165 16.4271 10.1777 16.2974C10.0388 16.1677 9.95439 15.9901 9.94143 15.8005C9.92848 15.611 9.98797 15.4235 10.1079 15.2761C10.2278 15.1287 10.3992 15.0323 10.5875 15.0064L10.6895 14.9994ZM10.6895 11.4996H17.1945C17.3844 11.4999 17.5671 11.5723 17.7058 11.7021C17.8445 11.8319 17.9287 12.0095 17.9415 12.199C17.9543 12.3885 17.8948 12.5758 17.7749 12.7231C17.655 12.8703 17.4836 12.9667 17.2955 12.9925L17.1945 12.9995H10.6895C10.4994 12.9995 10.3165 12.9273 10.1777 12.7976C10.0388 12.6679 9.95439 12.4903 9.94143 12.3007C9.92848 12.1111 9.98797 11.9237 10.1079 11.7763C10.2278 11.6289 10.3992 11.5325 10.5875 11.5066L10.6895 11.4996Z" fill="#A7A7A7"/>
</svg>
