<svg width="168" height="272" viewBox="0 0 168 272" fill="none" xmlns="http://www.w3.org/2000/svg">
<g clip-path="url(#clip0_10312_51185)">
<rect width="168" height="272" fill="white"/>
<g clip-path="url(#clip1_10312_51185)">
<g clip-path="url(#clip2_10312_51185)">
<path d="M243.472 171.713C223.299 169.008 194.521 147.682 184.374 137.535C151.998 151.065 144.022 140.003 142.292 132.575C142.147 131.952 142.285 131.302 142.662 130.786C143.459 129.695 144.325 128.748 145.251 127.934C132.449 131.988 123.217 125.222 118.992 119.891C118.097 118.763 118.549 117.155 119.861 116.561C121.53 115.805 123.497 115.025 125.689 114.295C116.363 111.884 109.609 104.18 106.544 99.3344C105.896 98.3097 106.183 96.9782 107.2 96.3194C107.647 96.0301 108.132 95.7347 108.652 95.4377C97.5707 90.8661 93.1382 80.4271 91.9372 74.0516C91.6868 72.7228 92.6761 71.5363 94.0282 71.5209C95.0865 71.5089 96.3235 71.546 97.6952 71.6571C86.4017 66.8761 80.9499 55.203 79.0279 47.7541C78.6121 46.1426 79.9867 44.7343 81.6148 45.0794C89.4287 46.7356 102.41 51.5226 110.122 61.5609C109.932 59.8016 109.846 58.1386 109.839 56.6325C109.832 55.1919 111.111 54.1235 112.514 54.4533C118.849 55.943 129.294 60.7191 135.053 71.6571C135.38 70.1528 135.82 68.7718 136.323 67.55C136.72 66.5852 137.734 66.0376 138.752 66.2642C145.034 67.6618 155.57 73.5156 158.136 88.6946C158.469 86.7262 158.921 84.8771 159.439 83.2059C159.89 81.7491 161.573 81.1519 162.842 81.9985C170.326 86.9926 181.612 97.8532 181.185 111.411C182.558 107.764 184.756 104.699 186.874 102.532C187.618 101.772 188.789 101.651 189.688 102.22C205.603 112.298 193.672 126.797 188.16 134.759C193.839 141.7 207.301 148.01 210.877 149.272C232.017 155.075 241.84 163.545 245.376 168.951C246.302 170.366 245.148 171.937 243.472 171.713Z" fill="white"/>
<path d="M184.374 137.535C194.521 147.682 223.299 169.008 243.472 171.713C245.148 171.937 246.302 170.366 245.376 168.951C241.84 163.545 232.017 155.075 210.877 149.272C207.301 148.01 193.839 141.7 188.16 134.759M184.374 137.535C151.998 151.065 144.022 140.003 142.292 132.575C142.147 131.952 142.285 131.302 142.662 130.786C143.459 129.695 144.325 128.748 145.251 127.934M184.374 137.535C181.85 132.866 180.588 130.973 179.326 125.925M184.374 137.535C186.267 136.652 188.16 134.759 188.16 134.759M184.374 137.535C177.611 132.463 167.399 125.101 157.871 124.122C153.366 123.66 149.014 124.625 145.251 127.934M188.16 134.759C193.672 126.797 205.603 112.298 189.688 102.22C188.789 101.651 187.618 101.772 186.874 102.532C184.756 104.699 182.558 107.764 181.185 111.411M181.185 111.411C181.612 97.8532 170.326 86.9926 162.842 81.9985C161.573 81.1519 159.89 81.7491 159.439 83.2059C158.921 84.8771 158.469 86.7262 158.136 88.6946M181.185 111.411C179.583 115.665 178.379 122.138 179.326 125.925M179.326 125.925C170.982 123.378 167.214 119.431 163.55 114.662M145.251 127.934C132.449 131.988 123.217 125.222 118.992 119.891C118.097 118.763 118.549 117.155 119.861 116.561C121.53 115.805 123.497 115.025 125.689 114.295M163.55 114.662C161.991 112.631 160.787 110.475 159.881 108.256M163.55 114.662C150.66 108.653 135.777 110.94 125.689 114.295M158.136 88.6946C155.57 73.5156 145.034 67.6618 138.752 66.2642C137.734 66.0376 136.72 66.5852 136.323 67.55C135.82 68.7718 135.38 70.1528 135.053 71.6571M158.136 88.6946C157.128 94.6628 157.216 101.728 159.881 108.256M159.881 108.256C149.051 103.573 142.488 97.7602 138.749 91.8496M125.689 114.295C116.363 111.884 109.609 104.18 106.544 99.3344C105.896 98.3097 106.183 96.9782 107.2 96.3194C107.647 96.0301 108.132 95.7347 108.652 95.4377M138.749 91.8496C134.188 84.6401 133.829 77.2851 135.053 71.6571M138.749 91.8496C135.56 90.8883 132.447 90.4186 129.476 90.3113M135.053 71.6571C129.294 60.7191 118.849 55.943 112.514 54.4533C111.111 54.1235 109.832 55.1919 109.839 56.6325C109.846 58.1386 109.932 59.8016 110.122 61.5609M129.476 90.3113C121.885 87.7577 117.059 82.2561 114.091 76.0742M129.476 90.3113C120.786 89.9975 113.302 92.7819 108.652 95.4377M114.091 76.0742C111.796 71.2936 110.613 66.1062 110.122 61.5609M114.091 76.0742C108.215 73.1971 102.222 72.0238 97.6952 71.6571M108.652 95.4377C97.5707 90.8661 93.1382 80.4271 91.9372 74.0516C91.6868 72.7228 92.6761 71.5363 94.0282 71.5209C95.0865 71.5089 96.3235 71.546 97.6952 71.6571M110.122 61.5609C102.41 51.5226 89.4287 46.7356 81.6148 45.0794C79.9867 44.7343 78.6121 46.1426 79.0279 47.7541C80.9499 55.203 86.4017 66.8761 97.6952 71.6571" stroke="#F5F5F5" stroke-width="3.7861" stroke-linecap="round"/>
<path d="M188.216 181.971C174.542 171.928 145.556 167.636 133.738 167.636C122.735 140.834 111.62 142.388 106.174 145.687C105.628 146.018 105.264 146.577 105.172 147.209C105.019 148.262 104.979 149.275 105.042 150.25C100.021 140.574 90.9448 138.949 85.277 139.475C83.8435 139.608 83.0269 141.065 83.5481 142.406C84.0627 143.731 84.709 145.204 85.4889 146.761C78.7408 142.786 70.466 143.224 65.7418 144.222C64.5555 144.473 63.8174 145.618 64.0887 146.8C64.1647 147.131 64.2512 147.476 64.3487 147.833C55.3547 144.093 46.7989 147.369 42.2434 150.36C41.1131 151.103 40.9761 152.64 41.935 153.593C42.4931 154.148 43.1471 154.754 43.8902 155.386C34.6909 151.659 24.9076 155.013 19.2978 158.192C17.8498 159.013 17.8267 160.979 19.2341 161.867C24.9152 165.453 35.0938 169.983 45.2627 168.65C44.2479 169.467 43.3252 170.288 42.5092 171.077C41.4738 172.078 41.6271 173.74 42.8657 174.476C47.5757 177.273 56.3222 180.356 65.8917 177.387C65.2587 178.372 64.7417 179.352 64.3344 180.288C63.9182 181.245 64.2482 182.351 65.139 182.895C69.7583 185.713 79.2543 188.245 89.5209 180.948C88.6625 182.155 87.9157 183.363 87.2828 184.523C86.5525 185.863 87.325 187.476 88.8245 187.755C96.2493 189.136 108.905 189.205 116.474 181.143C115.187 183.985 114.665 186.96 114.601 189.427C114.574 190.49 115.321 191.408 116.362 191.628C131.397 194.803 132.899 179.385 134.333 171.501C141.765 170.758 153.41 174.97 156.259 176.332C171.588 185.058 182.163 186.099 187.611 185.167C189.278 184.881 189.578 182.972 188.216 181.971Z" fill="white"/>
<path d="M133.738 167.636C145.556 167.636 174.542 171.928 188.216 181.971C189.578 182.972 189.278 184.881 187.611 185.167C182.163 186.099 171.588 185.058 156.259 176.332C153.41 174.97 141.765 170.758 134.333 171.501M133.738 167.636C122.735 140.834 111.62 142.388 106.174 145.687C105.628 146.018 105.264 146.577 105.172 147.209C105.019 148.262 104.979 149.275 105.042 150.25M133.738 167.636C129.501 168.9 127.643 169.271 123.927 171.501M133.738 167.636C134.333 169.271 134.333 171.501 134.333 171.501M133.738 167.636C126.768 166.641 116.418 164.962 110.23 159.927C107.304 157.546 105.309 154.414 105.042 150.25M134.333 171.501C132.899 179.385 131.397 194.803 116.362 191.628C115.321 191.408 114.574 190.49 114.601 189.427C114.665 186.96 115.187 183.985 116.474 181.143M116.474 181.143C108.905 189.205 96.2493 189.136 88.8245 187.755C87.325 187.476 86.5525 185.863 87.2828 184.523C87.9157 183.363 88.6625 182.155 89.5209 180.948M116.474 181.143C118.036 177.695 121.14 173.174 123.927 171.501M123.927 171.501C117.513 168.087 112.969 168.192 108.003 168.844M105.042 150.25C100.021 140.574 90.9448 138.949 85.277 139.475C83.8435 139.608 83.0269 141.065 83.5481 142.406C84.0627 143.731 84.709 145.204 85.4889 146.761M108.003 168.844C105.889 169.121 103.91 169.682 102.069 170.455M108.003 168.844C96.8722 164.791 89.4535 154.678 85.4889 146.761M89.5209 180.948C79.2543 188.245 69.7583 185.713 65.139 182.895C64.2482 182.351 63.9182 181.245 64.3344 180.288C64.7417 179.352 65.2587 178.372 65.8917 177.387M89.5209 180.948C92.442 176.839 96.6548 172.73 102.069 170.455M102.069 170.455C92.9329 166.835 85.6442 166.393 79.9611 167.672M85.4889 146.761C78.7408 142.786 70.466 143.224 65.7418 144.222C64.5555 144.473 63.8174 145.618 64.0887 146.8C64.1647 147.131 64.2512 147.476 64.3487 147.833M79.9611 167.672C73.0289 169.232 68.4857 173.352 65.8917 177.387M79.9611 167.672C77.5169 166.36 75.4069 164.803 73.5934 163.116M65.8917 177.387C56.3222 180.356 47.5757 177.273 42.8657 174.476C41.6271 173.74 41.4738 172.078 42.5092 171.077C43.3252 170.288 44.2479 169.467 45.2627 168.65M73.5934 163.116C67.619 160.15 61.5366 160.548 56.1481 162.441M73.5934 163.116C68.2911 158.184 65.5233 152.136 64.3487 147.833M56.1481 162.441C51.981 163.905 48.2289 166.263 45.2627 168.65M56.1481 162.441C50.993 160.675 46.7721 157.836 43.8902 155.386M64.3487 147.833C55.3547 144.093 46.7989 147.369 42.2434 150.36C41.1131 151.103 40.9761 152.64 41.935 153.593C42.4931 154.148 43.1471 154.754 43.8902 155.386M45.2627 168.65C35.0938 169.983 24.9152 165.453 19.2341 161.867C17.8267 160.979 17.8498 159.013 19.2978 158.192C24.9076 155.013 34.6909 151.659 43.8902 155.386" stroke="#F5F5F5" stroke-width="3.7861" stroke-linecap="round"/>
</g>
</g>
</g>
<defs>
<clipPath id="clip0_10312_51185">
<rect width="168" height="272" fill="white"/>
</clipPath>
<clipPath id="clip1_10312_51185">
<rect width="228" height="178" fill="white" transform="matrix(-1 0 0 1 242 19)"/>
</clipPath>
<clipPath id="clip2_10312_51185">
<rect width="236" height="155.23" fill="white" transform="matrix(-1 0 0 1 250 42)"/>
</clipPath>
</defs>
</svg>
