<svg width="28" height="28" viewBox="0 0 28 28" fill="none" xmlns="http://www.w3.org/2000/svg">
<path d="M6.4458 23.5142H15.8062C17.687 23.5142 18.6626 22.5298 18.6626 20.6313V16.6763H16.9399V20.5259C16.9399 21.3433 16.5093 21.7915 15.6567 21.7915H6.58643C5.73389 21.7915 5.31201 21.3433 5.31201 20.5259V7.47412C5.31201 6.65674 5.73389 6.2085 6.58643 6.2085H15.6567C16.5093 6.2085 16.9399 6.65674 16.9399 7.47412V11.3325H18.6626V7.36865C18.6626 5.479 17.687 4.48584 15.8062 4.48584H6.4458C4.56494 4.48584 3.58936 5.479 3.58936 7.36865V20.6313C3.58936 22.5298 4.56494 23.5142 6.4458 23.5142ZM12.106 14.8042H20.9653L22.2661 14.7427L21.6245 15.2876L20.3149 16.5181C20.1567 16.6587 20.0688 16.8608 20.0688 17.063C20.0688 17.4585 20.3677 17.7925 20.772 17.7925C20.9829 17.7925 21.1411 17.7046 21.2905 17.5552L24.1382 14.6108C24.3403 14.3999 24.4106 14.2065 24.4106 13.9956C24.4106 13.7847 24.3403 13.5913 24.1382 13.3804L21.2905 10.4272C21.1411 10.2778 20.9829 10.1987 20.772 10.1987C20.3677 10.1987 20.0688 10.5151 20.0688 10.9194C20.0688 11.1128 20.1567 11.3237 20.3149 11.4644L21.6245 12.7036L22.2749 13.2485L20.9653 13.1782H12.106C11.6753 13.1782 11.3062 13.5474 11.3062 13.9956C11.3062 14.4438 11.6753 14.8042 12.106 14.8042Z" fill="#A7A7A7"/>
</svg>
