<svg width="27" height="27" viewBox="0 0 27 27" fill="none" xmlns="http://www.w3.org/2000/svg">
<path d="M12.7628 3.30417C13.1592 2.8718 13.8408 2.8718 14.2372 3.30417L23.9743 13.9265C24.3124 14.2954 24.5 14.7776 24.5 15.278V23.5C24.5 24.0523 24.0523 24.5 23.5 24.5H17.5C16.9477 24.5 16.5 24.0523 16.5 23.5V19.5C16.5 17.8431 15.1569 16.5 13.5 16.5C11.8431 16.5 10.5 17.8431 10.5 19.5V23.5C10.5 24.0523 10.0523 24.5 9.5 24.5H3.5C2.94772 24.5 2.5 24.0523 2.5 23.5V15.278C2.5 14.7776 2.68757 14.2954 3.02569 13.9265L12.7628 3.30417Z" fill="#242424"/>
<path d="M3.02569 13.9265L2.07476 13.0548L3.02569 13.9265ZM14.2372 3.30417L13.2862 4.17585L14.2372 3.30417ZM12.7628 3.30417L13.7138 4.17585L12.7628 3.30417ZM13.2862 4.17585L23.0234 14.7982L24.9252 13.0548L15.1881 2.43248L13.2862 4.17585ZM3.97662 14.7982L13.7138 4.17585L11.8119 2.43248L2.07476 13.0548L3.97662 14.7982ZM3.79 23.5V15.278H1.21V23.5H3.79ZM23.21 15.278V23.5H25.79V15.278H23.21ZM9.5 23.21H3.5V25.79H9.5V23.21ZM23.5 23.21H17.5V25.79H23.5V23.21ZM9.21 19.5V23.5H11.79V19.5H9.21ZM17.79 23.5V19.5H15.21V23.5H17.79ZM17.79 19.5C17.79 17.1307 15.8693 15.21 13.5 15.21V17.79C14.4444 17.79 15.21 18.5556 15.21 19.5H17.79ZM11.79 19.5C11.79 18.5556 12.5556 17.79 13.5 17.79V15.21C11.1307 15.21 9.21 17.1307 9.21 19.5H11.79ZM17.5 23.21C17.6602 23.21 17.79 23.3398 17.79 23.5H15.21C15.21 24.7647 16.2353 25.79 17.5 25.79V23.21ZM9.5 25.79C10.7647 25.79 11.79 24.7647 11.79 23.5H9.21C9.21 23.3398 9.33984 23.21 9.5 23.21V25.79ZM23.21 23.5C23.21 23.3398 23.3398 23.21 23.5 23.21V25.79C24.7647 25.79 25.79 24.7647 25.79 23.5H23.21ZM1.21 23.5C1.21 24.7647 2.23527 25.79 3.5 25.79V23.21C3.66016 23.21 3.79 23.3398 3.79 23.5H1.21ZM2.07476 13.0548C1.51855 13.6616 1.21 14.4548 1.21 15.278H3.79C3.79 15.1003 3.85659 14.9291 3.97662 14.7982L2.07476 13.0548ZM23.0234 14.7982C23.1434 14.9291 23.21 15.1003 23.21 15.278H25.79C25.79 14.4548 25.4814 13.6616 24.9252 13.0548L23.0234 14.7982ZM15.1881 2.43248C14.2805 1.44236 12.7195 1.44236 11.8119 2.43248L13.7138 4.17585C13.5988 4.30124 13.4012 4.30124 13.2862 4.17585L15.1881 2.43248Z" fill="#242424"/>
</svg>
